<?xml version="1.0" encoding="utf-8"?>
<!-- Generator: Adobe Illustrator 22.0.1, SVG Export Plug-In . SVG Version: 6.00 Build 0)  -->
<svg version="1.1" id="Layer_1" xmlns="http://www.w3.org/2000/svg" xmlns:xlink="http://www.w3.org/1999/xlink" x="0px" y="0px"
	 viewBox="0 0 360 360" style="enable-background:new 0 0 360 360;" xml:space="preserve">
<style type="text/css">
	.st0{fill:none;stroke:#354753;stroke-width:0.5;stroke-miterlimit:10;}
	.st1{fill:none;stroke:#354753;stroke-miterlimit:10;}
	.st2{fill:#FFFFFF;stroke:#354753;stroke-miterlimit:10;}
	.st3{fill:#354753;}
</style>
<path class="st0" d="M209.2,167.9c0,0,0.6-0.9,1.3-0.7c0,0,2-2,2.8-1l0.1-0.5c0,0,0.5-0.7,1.2-0.9c0,0,1.1,0,1.3,0.3l2.2-0.3
	c0,0,1.2-0.7,1.9-0.2l0.7,0.6c0,0,1.8,0,2.3,0.6c0,0,0.1,0.1,0.2,0.1c0.2,0,0.4-0.1,0.7-0.3c0,0,1.9-0.7,2.2,0.7l-2.6,1.3l-13.9,1.4
	L209.2,167.9z"/>
<path class="st0" d="M222.7,166.9c0,0,0.1-0.8,0.7-1"/>
<path class="st0" d="M219.8,165.7c0,0-0.8-0.2-1.7,0.7"/>
<path class="st0" d="M216,165.1c0,0,1,0.6,1.1,1.4"/>
<path class="st0" d="M213.7,166.6c0,0,1.4-1.6,2.2,0"/>
<path class="st0" d="M212.7,167.2c0,0-0.9-0.6-1.4,0"/>
<path class="st0" d="M214,167c0,0,0.7-0.5,1.1-0.1"/>
<path class="st0" d="M220.8,165.8c0,0,0.7,1.1-0.1,1.6"/>
<path class="st0" d="M218.2,164.9c0,0-0.7,0.8-0.6,1.6"/>
<path class="st1" d="M274.4,186.1l1.7-2.7c0,0,0-3.1,2.8-3.3c0,0,2.1-0.3,3.3,0.3l0.9-0.6c0,0,0.6-0.6,1.8,0.3c0,0,0.6-0.8,1.5-0.6
	c0.9,0.2,2,0.4,2,0.4s1-0.8,1-1.2c0,0,0.1-0.8,1.6-0.3l1.5,1.2l1.8,1.3l1.2,0.9c0,0,1.3-0.1,1.4-0.9h0.7c0,0,7.1,2.5,8.6,4.5
	l1.4,0.9l2.4,5.6l-0.6,4.9l-7.7,7.2l-5.1,4.8l-17-2.2L274.4,186.1z"/>
<path class="st2" d="M277.1,190.1c0,0-0.7-5.3-4.4-4.4c0,0-6.8-1.3-7.5-0.3l-2.2-2.6c0,0-1-4.9-4.6-2.9l8.6,9.2L277.1,190.1z"/>
<path class="st3" d="M88.3,188.3c0,0-3.2-1.2-3.7,1.7l-0.8,3.5c0,0-0.5,4.7,0.2,6.3c0,0,24.6,1.5,27.6,1.2c0,0,5.3-0.4,6.2-1.6
	c0,0,1.8,0.3,2.1-0.6c0,0,4.4-0.3,4.9-1.4c0,0,2.9-0.4,3.6,0.2c0,0,2.1,0.2,2.2-0.4l1.5,0.4c0,0,2.8,1.3,4,0.8l19.3,5.3
	c0,0,0.3,0.8,1.5,0.8c0,0,1.9,0.8,2.7,0.3c0,0,1.2,1.4,2.4,0.8c0,0,2,2.2,6.9,3.1c0,0,1.2,1.1,2.5,0.8c0,0,1.6,1.1,2.8,0.8
	c0,0,1.5,0.4,2.6,0.2c0,0,2.3,1.1,2.4,0.5l2.5,0.1l13.6-7.2l-4.2-31.4c0,0-0.8-1.8-1.8-2c-1.1-0.2-0.3-5-23.1-25.8c0,0-6-5.9-10-4.6
	c0,0-7.5,3.1-10,8.2c0,0-4.7,10.3-19.8,19.7c0,0,4.4,7.1,4.9,7.5c0,0-2.4,0-3.2,0.9c0,0-4.4-0.4-7.1,1.7c0,0-2.1-0.8-5.7,3.4
	c0,0-2.1,0.2-2.9,2.1c-0.8,1.9-8.5,2.1-8.5,2.1s-1.2-0.5-1.4,0.5c0,0-3.1,0.1-3.6,0.9c0,0-2.7-1.2-3.3,0.5l-2.5-0.4
	C93,187.2,90.2,187.4,88.3,188.3z"/>
<path class="st2" d="M159.9,174.3l-17,1.5c0,0,11.2-7.3,12.4-10.7l0.9-0.7L159.9,174.3z"/>
<polygon class="st1" points="129.7,171.6 123.3,177.6 135.3,177.3 "/>
<path class="st3" d="M283.3,209.6c0,0,4.9,3.3,10.6,3c0,0-0.6,0.9-1.5,1.2c0,0,2.9,2,6.6,0.9l-0.9,1.3c0,0,3.9-0.6,5.7-2.1l-1,1.7
	c0,0,1.9-1.7,3.5-1.1c0,0,2.6,0.2,2.8-0.7c0,0,5-5.6,4.8-6.6c0,0,1-6.7,0.5-8.1c0,0-0.7-3.7-1.7-5.2l-0.2-1l0.1-0.6
	c0,0-1.6-3.5-2.5-3.5c0,0-0.3-1.2-1.1-0.5c0,0,0.6-0.8-0.2-0.7c0,0-0.1-2.2-2.4-2c0,0,4.5,4.5,1.7,11.8l-0.3-0.9l-0.6,1.2l0.1-1.5
	l-0.9-0.1l-0.3-1.3l-0.4,0.7l0.1-1.3l-0.9,0.9l-0.1-1.1l-0.6,1.2l-0.2-1.4l-0.6,2.1l-0.1-1.4c0,0-2.4,3.7-4.9,3.7l0.7,0.9l-1.7-0.1
	l1.3,0.7l-2.1-0.1l1.5,0.4l-4.5,0.2c0,0,3.1,0.3,3.6,1.3c0,0,1,2.4,0.1,3c0,0,1.7,3-1.4,3.7c-0.3,0.1-1.7,1-3.7-1
	c0,0-1.8,0.9-4.4-0.4c0,0-1.6-1-3.2-0.7l-1.6,0.1L283.3,209.6z"/>
<path class="st1" d="M130.3,195.2c0,0,1,4.3-3.4,4.2l-8.2-0.5l0.8-5.1L130.3,195.2z"/>
<path class="st2" d="M224.4,166.8l-6.5,0.9l-7.3,0.5c0,0-1.1-0.6-1.5-0.3c0,0-1.6,0.9-3.8,0.9c0,0-2.8-0.4-4.2,0.8l-2.6,2
	c0,0-2.5,1.3-3.1,0.8l-3.5-0.3l-3.4-1.1c0,0-1.7-0.7-3.7-0.1l-0.2,1.1c0,0-0.7,4.6,0.3,7.2c0,0,1.3,4.8,2.3,7.4c0,0,1.4,7.9,1,9.8
	c0,0-0.1,7.2-2.8,10.1c0,0-1.5,6.2-2.6,7.4c0,0,1.9,0.1,2-0.3l2,0.2c0,0,6.7,3.8,17.3-3.5l20.3,1.2l54.2-1.6c0,0,4,1.4,4.7,0.2
	c0,0,2.1-4.9,0.3-7.4l-3.8-9.2c0,0-1.7-7.4-8.9-8.2l-9-7.4c0,0-6.3-6.4-20-8.7c0,0-2.9-1.6-4-0.5l-2.6-1H234c0,0-3.7-1.1-5.4-0.9
	C228.5,166.8,225.5,166.5,224.4,166.8z"/>
<path class="st2" d="M278.3,213.1c0,0,4.3-6.6,4.3-7c0,0,0.9-3-0.2-3.5c0,0-1.2-8.1-7.8-10c0,0-10.9-2.5-12.6-0.9l-6.7,4.3
	c0,0-2.4,2.2-3.4,2.8l-3.2,1.4c0,0-5.1,2.2-5.2,3.6l-1,1.4c0,0-3.1-7.2-3.9-7.2c0,0,0.1-1.7-1.8-1.6c0,0-2.2-4.9-4.1-5.1
	c0,0-1.7-6.2-5-6.4c0,0,0.3-2.2-1.4-2.1c-1.7,0.1-5-3.5-5-3.5l-5.4,7.3l0.2,1.8c0,0-0.2,1.6,0.6,2.2c0,0,0.8,1.3,0.3,1.7
	c0,0,0.1,1.3,0.5,2.2c0,0,2.7,6.3,2.7,7.4c0,0,2.2,9.5,4.8,10c0,0,0.5,2.3,1.3,2.5c0,0,0.1,1.6,0.8,2l1.8,5.1c0,0,5.4,9.3,15.3,5.9
	l5-1.6l10.1-3.4l5.4-2.7c0,0,2.3-0.2,2.8-1c0,0,4-0.1,4.9-1.4c0,0,1-0.6,1.6-0.5l1.8-1.2L278.3,213.1z"/>
<path class="st1" d="M309.6,213c0,0,2.1,0.5,2.7,0.1c0,0,2.4-1,0.4-3.9"/>
<path class="st1" d="M313.6,206.2c0,0,3.5,5.1-1.3,6.8"/>
<path class="st1" d="M313.6,202.3c0,0,4.6,4,1,8.5"/>
<path class="st1" d="M309.4,212.5c0,0,7.5-0.8,3.6-5.9"/>
<path class="st1" d="M312.3,192.1c0,0,1.7,0.4,0.5,1.6"/>
<path class="st1" d="M313.1,196.4c0,0,3,0.9,1.3,3.3"/>
<path class="st1" d="M315,210c0,0,1.2-5.1-0.9-6.2"/>
<path class="st1" d="M289.8,201.5c0,0-1.5,0.5-0.3,2.2c0,0,1,0.8,1.2,1.4c0,0,0.6,1.4,1.5,2"/>
<path class="st3" d="M299.6,190.8l-0.2-0.5l0.4,0.4v-1.6l0.2,1l0.2-1.4l0.2,1.2l0.1-1.6l0.3,0.9l-0.2-1.4l0.2,0.5l-0.4-1.5
	c0,0,0.6,0.5,0.7,0.9l-0.9-1.8l0.9,0.7l-1.8-1.9l1.5,0.7l-1.8-1.1l1.9,0.3l-0.1,1.4L299,184l-0.5-0.2l0.2-0.3l-0.5-0.1l0.3-0.2
	l-0.6-0.1l-0.3-0.3l1.6-0.6l-0.1,0.3l0.8-0.2v0.5l0.5,0.1l-0.7,0.3l0.6,0.1l-0.5,0.2l0.7,0.3l-0.5,0.2l0.7,0.1l-0.7,0.1l0.7,0.4v0.1
	"/>
<path class="st3" d="M289.6,181.9c0,0,0,0,0.1,0c0.3,0,1.1-0.1,1-0.9c0,0-0.1-1.3-1-1.2c0,0,0.5,0.4,0.5,0.7
	C290.3,180.6,289.6,181.1,289.6,181.9z"/>
<path class="st3" d="M296.6,181.4l-0.2-0.4l-0.7-0.4l2.1-0.4l-0.3,0.6C297.6,180.9,296.6,180.9,296.6,181.4z"/>
<polygon class="st1" points="296.1,180.8 294.4,180.8 295.4,181.8 297.1,181.4 "/>
<path class="st0" d="M291.3,186.1"/>
<path class="st0" d="M225.9,172.1c0,0-1.5-1.3-1.9,0"/>
<path class="st0" d="M223.7,174.1c0,0,1.5-0.3,1.7,0.7"/>
<path class="st0" d="M213.6,173.3c0,0-1.1,0-0.6,1"/>
<path class="st0" d="M216.9,172.5c0,0-0.1,0.3,0,0.8"/>
<path class="st0" d="M210.2,173.7l-0.5,0.9c0,0,0.7,1.5,0.6,2.1"/>
<path class="st0" d="M212,172.7c0,0,0.3,0.8,0.2,1.9"/>
<path class="st0" d="M209.4,177.8c0,0,0.8-0.6,0.8-1.2"/>
<line class="st0" x1="212.6" y1="184.9" x2="211.9" y2="180.4"/>
<path class="st0" d="M221.4,175"/>
<path class="st0" d="M225.9,171.6c0,0-1.2-0.3-1.1-0.8"/>
<path class="st0" d="M293.6,202.6c0,0-0.3,0.2-1.1-0.2c0,0-1.1-0.7-0.8,0.2c0,0,1.1,1.3,0.6,2.1"/>
<path class="st0" d="M293.9,203.7l1.1,0.1c0,0-0.5,0.7-0.5,1.3c0,0-1.8,0.2-2.1,0.4"/>
<path class="st0" d="M295.7,204.1c0,0,1.3,0.7,1.1,2c0,0-0.9,1.2-1.3,1.3"/>
<path class="st0" d="M295.1,206.3c0,0-1,1-3-0.3"/>
<path class="st0" d="M292.1,181.6c0,0,0.4,1.2-1,1.5c0,0-1.6,0.5-1.8-0.5l0.4-0.9"/>
<path class="st0" d="M284.8,180.2c0,0,1.4,1.6,0.8,4c0,0,1.9-1.2,0.5-4.7"/>
<line class="st0" x1="283.3" y1="179.7" x2="285.5" y2="184.2"/>
<path class="st0" d="M294.6,184.6c0,0-0.6,0.7-0.5,1.5"/>
<path class="st0" d="M295.5,185.4c0,0,0.9,1,1,1.8l0.6,1.6l0.2-2.2c0,0,0.1-0.9-0.4-1L295.5,185.4z"/>
<path class="st0" d="M297.8,188.9c0,0,0.9-2.6-0.2-3.2c0,0-0.6-0.4-0.7-0.1"/>
<path class="st0" d="M296.2,186.3c0,0,0.5-0.4,1,0"/>
<path class="st0" d="M297.3,187c0,0-0.3,0.4-0.8,0.1"/>
<line class="st0" x1="296.5" y1="184.6" x2="298.2" y2="184.1"/>
<line class="st0" x1="276.3" y1="183.4" x2="277.4" y2="185.3"/>
<line class="st0" x1="198.5" y1="172.6" x2="194.2" y2="180"/>
<path class="st0" d="M234.1,192.4c0,0-3.6-2.5-4.6-1.6c0,0-1.6,0.8-1.8,3.2"/>
<path class="st0" d="M229.7,185.6c0,0-4.3-0.8-4.7,0.9"/>
<path class="st0" d="M238.6,198.2c0,0-1.7,0.7-1.6,3"/>
<path class="st0" d="M236.9,196.5c0,0-2,1.1-2.3,3.8"/>
<path class="st0" d="M220.7,198.3c0,0,2.2,3.9,1.7,6.5"/>
<path class="st0" d="M243.5,217.5c0,0,4.6-9.9-1.1-11.9c0,0,6.2,2.9,3.2,12.9c0,0-0.4,4.2-2.1,4.6"/>
<path class="st0" d="M245.9,205.6c0,0-0.2-2.8-2.5-1.9"/>
<path class="st0" d="M273.7,217c0,0,4.8-4.8,3.5-9.6"/>
<path class="st0" d="M258.5,188.8c0,0-8.1,4.3-7.8,10.8"/>
<path class="st0" d="M185.4,213.8c0,0,10.6-2.5,14.2-7.1l4.4-3.3"/>
<path class="st0" d="M204.3,210.4c0,0,5.5-0.7,6.7-2.1"/>
<line class="st0" x1="218" y1="200.6" x2="215.7" y2="204.2"/>
<path class="st0" d="M213.9,189.3c0,0-3.9,9.7-5.6,10.4"/>
<path class="st0" d="M84.5,198.4c0,0-3.3,0.6-4.8,1.7l-3.3,1.6l-7.4-3l-1-6.2l5.2-5.3c0,0,4.5,2,13.7,1.8L84.5,198.4z"/>
<path class="st0" d="M80.7,200.2c0,0-2-0.3-4.6,0.3c0,0-4.9-1.4-5.4-2.9c0,0-0.3-2.8-1.3-3.2c0,0,1.2-2.9-2-3.3l-5-2.5l-5.4-2.5
	c0,0-0.3-1.3-3,0.3c0,0-1.2,2-2.1,1.2L52,186c0,0-2.1-4-1.1-6c0,0,1.2-1.7,2.1-1.7c0,0,5.1,2,5.3,2.8c0,0,0.7,0.2,1.3,0.1
	c0.6-0.1-6.6-4.7-10-3.2l-2.6,2.4l-0.1,2.9l1.1,5.5l5.7,6l8.1,4.5l7.1,5.7c0,0,5.9,1.6,9.6-0.8C78.4,204.3,81.3,201,80.7,200.2z"/>
<path class="st0" d="M77.2,205.1c0,0-2.8,3.5-6,2.1c0,0-4.4-1.6-6.7-4.1c0,0-5.9-5-7.8-5.5c0,0-2.9-1.6-4.6-3.1c0,0-5.3-4.1-6.4-9.6
	c0,0-1.2-3.2,1.3-5.9c0,0,3.3-2.9,5.9-0.6c0,0-1.6-1.6-4.5,0.6c0,0-0.9,0.8-1,2.4c0,0,0.7,3.9,1.6,5.1l2.9,4.6c0,0,2,2.3,1.7,3.6
	c0,0,2.5,0.3,3.7,1.1c0,0,9.1,4.1,9.8,6.7c0,0,1.4-0.1,2.1,0.9c0,0,4.3,2.4,4.7,1.8C73.8,205.2,76.5,205.8,77.2,205.1z"/>
<path class="st0" d="M72.1,200c0,0-2.4,1.4-6-1c0,0-8.6-3.8-10.4-3.8"/>
<path class="st0" d="M64.9,183.8l3.2,2.1c0,0,1.3,1,0.4,2.6l-4.1,0.1c0,0-2.2,0.3-3.6,2.4c0,0-1.8,2.6-1.6,4.2c0,0-0.1,2.3,2.1,2.3
	c0,0,2.2,0.1,3.7-3.7c0,0,1.7-3.7,2.5-4l-1.8,3.7l-1.3,2.1l1.6-2c0,0,2.9-2.9,3.2-4.5c0,0,1.4-1.9,1.9-2.2c0,0,1.7-2.9,0.9-4.5
	c0,0-0.8-2.2-2.1-0.8l-1,3.9l-3.7-2.2L64.9,183.8z"/>
<path class="st0" d="M67.2,189.4c0,0-3.5-0.1-5.1,1.9c0,0-2.4,2.6-1,4.1c0,0,1,2.5,3.3-2.1C64.5,193.3,66.1,190,67.2,189.4z"/>
<path class="st0" d="M69.6,187.9c0,0,0-1.3-0.2-1.7c0,0,1.6-2.6,0.7-3.6c0,0,0.2-1.6,1-0.3C71.1,182.2,72,185.8,69.6,187.9z"/>
<path class="st0" d="M69.7,195.9c0,0,1.4,0.3,1.8-1.7c0,0,1.6-5.1,2.1-6c0,0,2.1-0.7,1-1.4c-1.1-0.6-0.3-0.1-0.3-0.1l-1.6,0.2
	l-1.3-0.7l-2-0.3c0,0-5.6-2.6-6.9-2.3l-1.2-1.2c0,0-0.3-0.9-1.3-0.6l-0.5-0.5"/>
<path class="st0" d="M60.2,182.1c0,0-3.7,3.5-4.1,4.7l0.3,0.3c0,0,4-3.4,4.9-4.6"/>
<path class="st2" d="M222.8,177.7c0,0,2.8-1.2,2.5-3.5c0,0,1.2-1.6,0.6-2.7c0,0,1-2.5,0.4-3.2c0,0,0.5-1.8-0.6-2.1
	c0,0-1.6-0.3-2.3,0.8c0,0-0.8,1.5-0.5,2.8l-0.6,0.5c0,0-1-1.4-2.8-1.5l-0.7-1.2c0,0-0.5-2.2-2.5-1.5c0,0-1.5,0.7-0.6,2.2l-0.6,0.3
	c0,0-0.4-2-2.1-1.7c0,0-1.2,0.7-1,1.7c0,0-1.6-0.4-2.1,1.1c0,0-1.1,0-1.5,0.9l-0.5,1.5c0,0-0.5,0.7,0.3,1.8c0,0,0.8,6,4.2,7
	L222.8,177.7z"/>
<path class="st2" d="M225.9,182.5c0,0-6.7-1.3-10.1,6c0,0-2.9-4.9-3.6-7.5c0,0,5.5-10.4,11.3-3.9l-0.2,0.9L225.9,182.5z"/>
</svg>
