<?xml version="1.0" encoding="utf-8"?>
<!-- Generator: Adobe Illustrator 22.0.1, SVG Export Plug-In . SVG Version: 6.00 Build 0)  -->
<svg version="1.1" id="Layer_1" xmlns="http://www.w3.org/2000/svg" xmlns:xlink="http://www.w3.org/1999/xlink" x="0px" y="0px"
	 viewBox="0 0 360 360" style="enable-background:new 0 0 360 360;" xml:space="preserve">
<style type="text/css">
	.st0{fill:none;stroke:#354753;stroke-width:0.5;stroke-miterlimit:10;}
	.st1{fill:none;stroke:#354753;stroke-miterlimit:10;}
	.st2{fill:#FFFFFF;stroke:#354753;stroke-miterlimit:10;}
	.st3{fill:#354753;}
</style>
<path class="st0" d="M209.1,169.5c0,0,0.6-0.9,1.3-0.7c0,0,2-2,2.8-1l0.1-0.5c0,0,0.5-0.7,1.2-0.9c0,0,1.1,0,1.3,0.3l2.2-0.3
	c0,0,1.2-0.7,1.9-0.2l0.7,0.6c0,0,1.8,0,2.3,0.6c0,0,0.1,0.1,0.2,0.1c0.2,0,0.4-0.1,0.7-0.3c0,0,1.9-0.7,2.2,0.7l-2.6,1.3l-13.9,1.4
	L209.1,169.5z"/>
<path class="st0" d="M222.6,168.5c0,0,0.1-0.8,0.7-1"/>
<path class="st0" d="M219.7,167.3c0,0-0.8-0.2-1.7,0.7"/>
<path class="st0" d="M215.9,166.7c0,0,1,0.6,1.1,1.4"/>
<path class="st0" d="M213.6,168.2c0,0,1.4-1.6,2.2,0"/>
<path class="st0" d="M212.6,168.8c0,0-0.9-0.6-1.4,0"/>
<path class="st0" d="M213.9,168.6c0,0,0.7-0.5,1.1-0.1"/>
<path class="st0" d="M220.7,167.4c0,0,0.7,1.1-0.1,1.6"/>
<path class="st0" d="M218.1,166.5c0,0-0.7,0.8-0.6,1.6"/>
<path class="st1" d="M274.3,186.7l1.7-2.7c0,0,0-3.1,2.8-3.3c0,0,2.1-0.3,3.3,0.3l0.9-0.6c0,0,0.6-0.6,1.8,0.3c0,0,0.6-0.8,1.5-0.6
	c0.9,0.2,2,0.4,2,0.4s1-0.8,1-1.2c0,0,0.1-0.8,1.6-0.3l1.5,1.2l1.8,1.3l1.2,0.9c0,0,1.3-0.1,1.4-0.9h0.7c0,0,7.1,2.5,8.6,4.5
	l1.4,0.9l2.4,5.6l-0.6,4.9l-7.7,7.2l-5.1,4.8l-17-2.2L274.3,186.7z"/>
<path class="st2" d="M277,190.7c0,0-0.7-5.3-4.4-4.4c0,0-6.8-1.3-7.5-0.3l-2.2-2.6c0,0-1-4.9-4.6-2.9l8.6,9.2L277,190.7z"/>
<path class="st3" d="M88.2,188.9c0,0-3.2-1.2-3.7,1.7l-0.8,3.5c0,0-0.5,4.7,0.2,6.3c0,0,24.6,1.5,27.6,1.2c0,0,5.3-0.4,6.2-1.6
	c0,0,1.8,0.3,2.1-0.6c0,0,4.4-0.3,4.9-1.4c0,0,2.9-0.4,3.6,0.2c0,0,2.1,0.2,2.2-0.4l1.5,0.4c0,0,2.8,1.3,4,0.8l19.3,5.3
	c0,0,0.3,0.8,1.5,0.8c0,0,1.9,0.8,2.7,0.3c0,0,1.2,1.4,2.4,0.8c0,0,2,2.2,6.9,3.1c0,0,1.2,1.1,2.5,0.8c0,0,1.6,1.1,2.8,0.8
	c0,0,1.5,0.4,2.6,0.2c0,0,2.3,1.1,2.4,0.5l2.5,0.1l13.6-7.2l-4.2-31.4c0,0-0.8-1.8-1.8-2c-1.1-0.2-0.3-5-23.1-25.8c0,0-6-5.9-10-4.6
	c0,0-7.5,3.1-10,8.2c0,0-4.7,10.3-19.8,19.7c0,0,4.4,7.1,4.9,7.5c0,0-2.4,0-3.2,0.9c0,0-4.4-0.4-7.1,1.7c0,0-2.1-0.8-5.7,3.4
	c0,0-2.1,0.2-2.9,2.1c-0.8,1.9-8.5,2.1-8.5,2.1s-1.2-0.5-1.4,0.5c0,0-3.1,0.1-3.6,0.9c0,0-2.7-1.2-3.3,0.5l-2.5-0.4
	C92.9,187.8,90.1,188,88.2,188.9z"/>
<path class="st2" d="M159.8,174.9l-17,1.5c0,0,11.2-7.3,12.4-10.7l0.9-0.7L159.8,174.9z"/>
<polygon class="st1" points="129.6,172.2 123.2,178.2 135.2,177.9 "/>
<path class="st3" d="M283.2,210.2c0,0,4.9,3.3,10.6,3c0,0-0.6,0.9-1.5,1.2c0,0,2.9,2,6.6,0.9l-0.9,1.3c0,0,3.9-0.6,5.7-2.1l-1,1.7
	c0,0,1.9-1.7,3.5-1.1c0,0,2.6,0.2,2.8-0.7c0,0,5-5.6,4.8-6.6c0,0,1-6.7,0.5-8.1c0,0-0.7-3.7-1.7-5.2l-0.2-1l0.1-0.6
	c0,0-1.6-3.5-2.5-3.5c0,0-0.3-1.2-1.1-0.5c0,0,0.6-0.8-0.2-0.7c0,0-0.1-2.2-2.4-2c0,0,4.5,4.5,1.7,11.8l-0.3-0.9l-0.6,1.2l0.1-1.5
	l-0.9-0.1l-0.3-1.3l-0.4,0.7l0.1-1.3l-0.9,0.9l-0.1-1.1l-0.6,1.2l-0.2-1.4l-0.6,2.1l-0.1-1.4c0,0-2.4,3.7-4.9,3.7l0.7,0.9l-1.7-0.1
	l1.3,0.7l-2.1-0.1l1.5,0.4l-4.5,0.2c0,0,3.1,0.3,3.6,1.3c0,0,1,2.4,0.1,3c0,0,1.7,3-1.4,3.7c-0.3,0.1-1.7,1-3.7-1
	c0,0-1.8,0.9-4.4-0.4c0,0-1.6-1-3.2-0.7l-1.6,0.1L283.2,210.2z"/>
<path class="st1" d="M130.2,195.8c0,0,1,4.3-3.4,4.2l-8.2-0.5l0.8-5.1L130.2,195.8z"/>
<path class="st2" d="M224.3,168.4l-6.5,0.9l-7.3,0.5c0,0-1.1-0.6-1.5-0.3c0,0-1.6,0.9-3.8,0.9c0,0-2.8-0.4-4.2,0.8l-2.6,2
	c0,0-2.5,0.3-3.1-0.2l-3.5-0.3l-3.4-1.1c0,0-1.7-0.7-3.7-0.1l-0.2,1.1c0,0-0.7,4.6,0.3,7.2c0,0,1.3,4.8,2.3,7.4c0,0,1.4,7.9,1,9.8
	c0,0-0.1,7.2-2.8,10.1c0,0-1.5,6.2-2.6,7.4c0,0,1.9,0.1,2-0.3l2,0.2c0,0,6.7,3.8,17.3-3.5l20.3,1.2l54.2-1.6c0,0,4,1.4,4.7,0.2
	c0,0,2.1-4.9,0.3-7.4l-3.8-9.2c0,0-1.7-6.4-8.9-7.2l-9-7.4c0,0-6.3-6.4-20-8.7c0,0-2.9-1.6-4-0.5l-2.6-1h-1.6c0,0-3.7-1.1-5.4-0.9
	C228.5,168.4,225.4,168.1,224.3,168.4z"/>
<path class="st2" d="M278.2,213.7c0,0,4.3-6.6,4.3-7c0,0,0.9-3-0.2-3.5c0,0-1.2-8.1-7.8-10c0,0-10.9-2.5-12.6-0.9l-6.7,4.3
	c0,0-2.4,2.2-3.4,2.8l-3.2,1.4c0,0-5.1,2.2-5.2,3.6l-1,1.4c0,0-3.3-3.5-4.1-3.5c0,0,0.1-1.7-1.8-1.6c0,0-2.2-4.9-4.1-5.1
	c0,0-1.3-8.6-4.7-8.9c0,0,0.3-2.2-1.4-2.1c-1.7,0.1-5-3.5-5-3.5l-5.4,7.3l0.2,1.8c0,0-0.2,1.6,0.6,2.2c0,0,0.8,1.3,0.3,1.7
	c0,0,0.1,1.3,0.5,2.2c0,0,2.7,6.3,2.7,7.4c0,0,2.2,9.5,4.8,10c0,0,0.5,2.3,1.3,2.5c0,0,0.1,1.6,0.8,2l2,1.4c0,0,5.1,11.8,15,8.4
	l5-1.6l10.1-3.4l5.4-2.7c0,0,2.3-0.2,2.8-1c0,0,4-0.1,4.9-1.4c0,0,1-0.6,1.6-0.5l1.8-1.2L278.2,213.7z"/>
<path class="st1" d="M309.5,213.6c0,0,2.1,0.5,2.7,0.1c0,0,2.4-1,0.4-3.9"/>
<path class="st1" d="M313.5,206.8c0,0,3.5,5.1-1.3,6.8"/>
<path class="st1" d="M313.5,202.9c0,0,4.6,4,1,8.5"/>
<path class="st1" d="M309.3,213.1c0,0,7.5-0.8,3.6-5.9"/>
<path class="st1" d="M312.2,192.7c0,0,1.7,0.4,0.5,1.6"/>
<path class="st1" d="M313,197c0,0,3,0.9,1.3,3.3"/>
<path class="st1" d="M314.9,210.6c0,0,1.2-5.1-0.9-6.2"/>
<path class="st1" d="M289.7,202.1c0,0-1.5,0.5-0.3,2.2c0,0,1,0.8,1.2,1.4c0,0,0.6,1.4,1.5,2"/>
<path class="st3" d="M299.5,191.4l-0.2-0.5l0.4,0.4v-1.6l0.2,1l0.2-1.4l0.2,1.2l0.1-1.6l0.3,0.9l-0.2-1.4l0.2,0.5l-0.4-1.5
	c0,0,0.6,0.5,0.7,0.9l-0.9-1.8l0.9,0.7l-1.8-1.9l1.5,0.7l-1.8-1.1l1.9,0.3l-0.1,1.4l-1.7-2.2l-0.5-0.2l0.2-0.3l-0.5-0.1l0.3-0.2
	l-0.6-0.1l-0.3-0.3l1.6-0.6l-0.1,0.3l0.8-0.2v0.5l0.5,0.1l-0.7,0.3l0.6,0.1l-0.5,0.2l0.7,0.3l-0.5,0.2l0.7,0.1l-0.7,0.1l0.7,0.4v0.1
	"/>
<path class="st3" d="M289.5,182.5c0,0,0,0,0.1,0c0.3,0,1.1-0.1,1-0.9c0,0-0.1-1.3-1-1.2c0,0,0.5,0.4,0.5,0.7
	C290.2,181.2,289.5,181.7,289.5,182.5z"/>
<path class="st3" d="M296.5,182l-0.2-0.4l-0.7-0.4l2.1-0.4l-0.3,0.6C297.5,181.5,296.5,181.5,296.5,182z"/>
<polygon class="st1" points="296,181.4 294.3,181.4 295.3,182.4 297,182 "/>
<path class="st0" d="M291.2,186.7"/>
<path class="st0" d="M225.8,172.7c0,0-1.5-1.3-1.9,0"/>
<path class="st0" d="M223.6,174.7c0,0,1.5-0.3,1.7,0.7"/>
<path class="st0" d="M213.5,173.9c0,0-1.1,0-0.6,1"/>
<path class="st0" d="M216.8,173.1c0,0-0.1,0.3,0,0.8"/>
<path class="st0" d="M210.1,174.3l-0.5,0.9c0,0,0.7,1.5,0.6,2.1"/>
<path class="st0" d="M211.9,173.3c0,0,0.3,0.8,0.2,1.9"/>
<path class="st0" d="M209.4,178.4c0,0,0.8-0.6,0.8-1.2"/>
<line class="st0" x1="212.5" y1="185.5" x2="211.8" y2="181"/>
<path class="st0" d="M221.3,175.5"/>
<path class="st0" d="M225.8,172.2c0,0-1.2-0.3-1.1-0.8"/>
<path class="st0" d="M293.5,203.2c0,0-0.3,0.2-1.1-0.2c0,0-1.1-0.7-0.8,0.2c0,0,1.1,1.3,0.6,2.1"/>
<path class="st0" d="M293.8,204.3l1.1,0.1c0,0-0.5,0.7-0.5,1.3c0,0-1.8,0.2-2.1,0.4"/>
<path class="st0" d="M295.6,204.6c0,0,1.3,0.7,1.1,2c0,0-0.9,1.2-1.3,1.3"/>
<path class="st0" d="M295,206.9c0,0-1,1-3-0.3"/>
<path class="st0" d="M292.1,182.2c0,0,0.4,1.2-1,1.5c0,0-1.6,0.5-1.8-0.5l0.4-0.9"/>
<path class="st0" d="M284.7,180.8c0,0,1.4,1.6,0.8,4c0,0,1.9-1.2,0.5-4.7"/>
<line class="st0" x1="283.2" y1="180.3" x2="285.4" y2="184.8"/>
<path class="st0" d="M294.5,185.2c0,0-0.6,0.7-0.5,1.5"/>
<path class="st0" d="M295.4,186c0,0,0.9,1,1,1.8l0.6,1.6l0.2-2.2c0,0,0.1-0.9-0.4-1L295.4,186z"/>
<path class="st0" d="M297.7,189.5c0,0,0.9-2.6-0.2-3.2c0,0-0.6-0.4-0.7-0.1"/>
<path class="st0" d="M296.1,186.9c0,0,0.5-0.4,1,0"/>
<path class="st0" d="M297.2,187.6c0,0-0.3,0.4-0.8,0.1"/>
<line class="st0" x1="296.4" y1="185.2" x2="298.2" y2="184.7"/>
<line class="st0" x1="276.2" y1="184" x2="277.3" y2="185.9"/>
<line class="st0" x1="198.4" y1="173.2" x2="194.1" y2="180.6"/>
<path class="st0" d="M231.6,194c0,0-3.6-2.5-4.6-1.6c0,0-1.6,0.8-1.8,3.2"/>
<path class="st0" d="M227.2,189.2c0,0-4.3-0.8-4.7,0.9"/>
<path class="st0" d="M238.1,202.3c0,0-1.7,0.7-1.6,3"/>
<path class="st0" d="M236.3,200.7c0,0-2,1.1-2.3,3.8"/>
<path class="st0" d="M220.6,198.9c0,0,2.2,3.9,1.7,6.5"/>
<path class="st0" d="M225.6,215.3"/>
<path class="st0" d="M243.4,217.7c0,0,4.6-9.9-1.1-11.9c0,0,6.2,2.9,3.2,12.9c0,0-0.4,4.2-2.1,4.6"/>
<path class="st0" d="M245.8,206.2c0,0-0.2-2.8-2.5-1.9"/>
<path class="st0" d="M273.6,217.6c0,0,4.8-4.8,3.5-9.6"/>
<path class="st0" d="M258.4,190.4c0,0-8.1,4.3-7.8,10.8"/>
<path class="st0" d="M185.3,214.4c0,0,10.6-2.5,14.2-7.1l4.4-3.3"/>
<path class="st0" d="M204.2,211c0,0,5.5-0.7,6.7-2.1"/>
<line class="st0" x1="217.9" y1="201.2" x2="215.6" y2="204.8"/>
<path class="st0" d="M213.8,189.8c0,0-3.9,9.7-5.6,10.4"/>
<path class="st0" d="M84.5,199c0,0-3.3,0.6-4.8,1.7l-3.3,1.6l-7.4-3l-1-6.2l5.2-5.3c0,0,4.5,2,13.7,1.8L84.5,199z"/>
<path class="st0" d="M80.6,200.8c0,0-2-0.3-4.6,0.3c0,0-4.9-1.4-5.4-2.9c0,0-0.3-2.8-1.3-3.2c0,0,1.2-2.9-2-3.3l-5-2.5l-5.4-2.5
	c0,0-0.3-1.3-3,0.3c0,0-1.2,2-2.1,1.2l0.1-1.6c0,0-2.1-4-1.1-6c0,0,1.2-1.7,2.1-1.7c0,0,5.1,2,5.3,2.8c0,0,0.7,0.2,1.3,0.1
	s-6.6-4.7-10-3.2l-2.6,2.4l-0.1,2.9l1.1,5.5l5.7,6l8.1,4.5l7.1,5.7c0,0,5.9,1.6,9.6-0.8C78.4,204.9,81.2,201.6,80.6,200.8z"/>
<path class="st0" d="M77.1,205.7c0,0-2.8,3.5-6,2.1c0,0-4.4-1.6-6.7-4.1c0,0-5.9-5-7.8-5.5c0,0-2.9-1.6-4.6-3.1c0,0-5.3-4.1-6.4-9.6
	c0,0-1.2-3.2,1.3-5.9c0,0,3.3-2.9,5.9-0.6c0,0-1.6-1.6-4.5,0.6c0,0-0.9,0.8-1,2.4c0,0,0.7,3.9,1.6,5.1l2.9,4.6c0,0,2,2.3,1.7,3.6
	c0,0,2.5,0.3,3.7,1.1c0,0,9.1,4.1,9.8,6.7c0,0,1.4-0.1,2.1,0.9c0,0,4.3,2.4,4.7,1.8C73.7,205.8,76.4,206.4,77.1,205.7z"/>
<path class="st0" d="M72,200.5c0,0-2.4,1.4-6-1c0,0-8.6-3.8-10.4-3.8"/>
<path class="st0" d="M64.8,184.4l3.2,2.1c0,0,1.3,1,0.4,2.6l-4.1,0.1c0,0-2.2,0.3-3.6,2.4c0,0-1.8,2.6-1.6,4.2c0,0-0.1,2.3,2.1,2.3
	c0,0,2.2,0.1,3.7-3.7c0,0,1.7-3.7,2.5-4l-1.8,3.7l-1.3,2.1l1.6-2c0,0,2.9-2.9,3.2-4.5c0,0,1.4-1.9,1.9-2.2c0,0,1.7-2.9,0.9-4.5
	c0,0-0.8-2.2-2.1-0.8l-1,3.9l-3.7-2.2L64.8,184.4z"/>
<path class="st0" d="M67.1,190c0,0-3.5-0.1-5.1,1.9c0,0-2.4,2.6-1,4.1c0,0,1,2.5,3.3-2.1C64.4,193.9,66,190.6,67.1,190z"/>
<path class="st0" d="M69.5,188.5c0,0,0-1.3-0.2-1.7c0,0,1.6-2.6,0.7-3.6c0,0,0.2-1.6,1-0.3C71,182.8,71.9,186.4,69.5,188.5z"/>
<path class="st0" d="M69.6,196.5c0,0,1.4,0.3,1.8-1.7c0,0,1.6-5.1,2.1-6c0,0,2.1-0.7,1-1.4c-1.1-0.6-0.3-0.1-0.3-0.1l-1.6,0.2
	l-1.3-0.7l-2-0.3c0,0-5.6-2.6-6.9-2.3l-1.2-1.2c0,0-0.3-0.9-1.3-0.6l-0.5-0.5"/>
<path class="st0" d="M60.1,182.7c0,0-3.7,3.5-4.1,4.7l0.3,0.3c0,0,4-3.4,4.9-4.6"/>
<path class="st2" d="M222.7,179.3c0,0,2.8-1.2,2.5-3.5c0,0,1.2-1.6,0.6-2.7c0,0,1-2.5,0.4-3.2c0,0,0.5-1.8-0.6-2.1
	c0,0-1.6-0.3-2.3,0.8c0,0-0.8,1.5-0.5,2.8l-0.6,0.5c0,0-1-1.4-2.8-1.5l-0.7-1.2c0,0-0.5-2.2-2.5-1.5c0,0-1.5,0.7-0.6,2.2l-0.6,0.3
	c0,0-0.4-2-2.1-1.7c0,0-1.2,0.7-1,1.7c0,0-1.6-0.4-2.1,1.1c0,0-1.1,0-1.5,0.9l-0.5,1.5c0,0-0.5,0.7,0.3,1.8c0,0,0.8,6,4.2,7
	L222.7,179.3z"/>
<path class="st2" d="M225.8,184.1c0,0-6.7-1.3-10.1,6c0,0-2.9-4.9-3.6-7.5c0,0,5.5-10.4,11.3-3.9l-0.2,0.9L225.8,184.1z"/>
</svg>
