<?xml version="1.0" encoding="utf-8"?>
<!-- Generator: Adobe Illustrator 22.0.1, SVG Export Plug-In . SVG Version: 6.00 Build 0)  -->
<svg version="1.1" id="Layer_1" xmlns="http://www.w3.org/2000/svg" xmlns:xlink="http://www.w3.org/1999/xlink" x="0px" y="0px"
	 viewBox="0 0 360 360" style="enable-background:new 0 0 360 360;" xml:space="preserve">
<style type="text/css">
	.st0{fill:none;stroke:#354753;stroke-miterlimit:10;}
	.st1{fill:#FFFFFF;stroke:#354753;stroke-miterlimit:10;}
	.st2{fill:#354753;}
	.st3{fill:none;stroke:#354753;stroke-width:0.5;stroke-miterlimit:10;}
</style>
<g>
	<path class="st0" d="M273.4,186.7l1.7-2.7c0,0,0-3.1,2.8-3.3c0,0,2.1-0.3,3.3,0.3l0.9-0.6c0,0,0.6-0.6,1.8,0.3c0,0,0.6-0.8,1.5-0.6
		c0.9,0.2,2,0.4,2,0.4s1-0.8,1-1.2c0,0,0.1-0.8,1.6-0.3l1.5,1.2l1.8,1.3l1.2,0.9c0,0,1.3-0.1,1.4-0.9h0.7c0,0,7.1,2.5,8.6,4.5
		l1.4,0.9l2.4,5.6l-0.6,4.9l-7.7,7.2l-5.1,4.8l-17-2.2L273.4,186.7z"/>
	<path class="st1" d="M276.1,190.7c0,0-0.7-5.3-4.4-4.4c0,0-6.8-1.3-7.5-0.3l-2.2-2.6c0,0-1-4.9-4.6-2.9l8.6,9.2L276.1,190.7z"/>
	<path class="st2" d="M87.3,188.9c0,0-3.2-1.2-3.7,1.7l-0.8,3.5c0,0-0.5,4.7,0.2,6.3c0,0,24.6,1.5,27.6,1.2c0,0,5.3-0.4,6.2-1.6
		c0,0,1.8,0.3,2.1-0.6c0,0,4.4-0.3,4.9-1.4c0,0,2.9-0.4,3.6,0.2c0,0,2.1,0.2,2.2-0.4l1.5,0.4c0,0,2.8,1.3,4,0.8l19.3,5.3
		c0,0,0.3,0.8,1.5,0.8c0,0,1.9,0.8,2.7,0.3c0,0,1.2,1.4,2.4,0.8c0,0,2,2.2,6.9,3.1c0,0,1.2,1.1,2.5,0.8c0,0,1.6,1.1,2.8,0.8
		c0,0,1.5,0.4,2.6,0.2c0,0,2.3,1.1,2.4,0.5l2.5,0.1l13.6-7.2l-4.2-31.4c0,0-0.8-1.8-1.8-2c-1.1-0.2-0.3-5-23.1-25.8
		c0,0-6-5.9-10-4.6c0,0-7.5,3.1-10,8.2c0,0-4.7,10.3-19.8,19.7c0,0,4.4,7.1,4.9,7.5c0,0-2.4,0-3.2,0.9c0,0-4.4-0.4-7.1,1.7
		c0,0-2.1-0.8-5.7,3.4c0,0-2.1,0.2-2.9,2.1c-0.8,1.9-8.5,2.1-8.5,2.1s-1.2-0.5-1.4,0.5c0,0-3.1,0.1-3.6,0.9c0,0-2.7-1.2-3.3,0.5
		l-2.5-0.4C92,187.9,89.2,188,87.3,188.9z"/>
	<path class="st1" d="M158.9,175l-17,1.5c0,0,11.2-7.3,12.4-10.7l0.9-0.7L158.9,175z"/>
	<polygon class="st0" points="128.7,172.2 122.3,178.3 134.3,178 	"/>
	<path class="st2" d="M282.3,210.3c0,0,4.9,3.3,10.6,3c0,0-0.6,0.9-1.5,1.2c0,0,2.9,2,6.6,0.9l-0.9,1.3c0,0,3.9-0.6,5.7-2.1l-1,1.7
		c0,0,1.9-1.7,3.5-1.1c0,0,2.6,0.2,2.8-0.7c0,0,5-5.6,4.8-6.6c0,0,1-6.7,0.5-8.1c0,0-0.7-3.7-1.7-5.2l-0.2-1l0.1-0.6
		c0,0-1.6-3.5-2.5-3.5c0,0-0.3-1.2-1.1-0.5c0,0,0.6-0.8-0.2-0.7c0,0-0.1-2.2-2.4-2c0,0,4.5,4.5,1.7,11.8l-0.3-0.9l-0.6,1.2l0.1-1.5
		l-0.9-0.1l-0.3-1.3l-0.4,0.7l0.1-1.3l-0.9,0.9l-0.1-1.1l-0.6,1.2l-0.2-1.4l-0.6,2.1l-0.1-1.4c0,0-2.4,3.7-4.9,3.7l0.7,0.9l-1.7-0.1
		l1.3,0.7l-2.1-0.1l1.5,0.4l-4.5,0.2c0,0,3.1,0.3,3.6,1.3c0,0,1,2.4,0.1,3c0,0,1.7,3-1.4,3.7c-0.3,0.1-1.7,1-3.7-1
		c0,0-1.8,0.9-4.4-0.4c0,0-1.6-1-3.2-0.7l-1.6,0.1L282.3,210.3z"/>
	<path class="st0" d="M129.3,195.8c0,0,1,4.3-3.4,4.2l-8.2-0.5l0.8-5.1L129.3,195.8z"/>
	<path class="st1" d="M223.4,171.5l-6.5,0.9l-7.3,0.5c0,0-1.1-0.6-1.5-0.3c0,0-1.6-2.1-3.8-2.1c0,0-2.8-0.4-4.2,0.8l-2.6,2
		c0,0-2.5,0.3-3.1-0.2l-3.5-0.3l-3.4-1.1c0,0-1.7-0.7-3.7-0.1l-0.2,1.1c0,0-0.7,4.6,0.3,7.2c0,0,1.3,4.8,2.3,7.4c0,0,1.4,7.9,1,9.8
		c0,0-0.1,7.2-2.8,10.1c0,0-1.5,6.2-2.6,7.4c0,0,1.9,0.1,2-0.3l2,0.2c0,0,6.7,3.8,17.3-3.5l20.3,1.2l54.2-1.6c0,0,4,1.4,4.7,0.2
		c0,0,2.1-4.9,0.3-7.4l-3.8-9.2c0,0-1.7-5.4-8.9-6.2l-9-5.4c0,0-6.3-6.4-20-8.7c0,0-2.9-1.6-4-0.5l-2.6-1H233c0,0-3.7-1.1-5.4-0.9
		C227.5,171.5,224.5,171.1,223.4,171.5z"/>
	<path class="st1" d="M277.3,213.7c0,0,4.3-6.6,4.3-7c0,0,0.9-3-0.2-3.5c0,0-1.2-8.1-7.8-10c0,0-10.9-2.5-12.6-0.9l-6.7,4.3
		c0,0-2.4,2.2-3.4,2.8l-3.2,1.4c0,0-5.1,2.2-5.2,3.6l-1,1.4c0,0-3.3-3.5-4.1-3.5c0,0,0.1-1.7-1.8-1.6c0,0-2.2-4.9-4.1-5.1
		c0,0-1.7-6.2-5-6.4c0,0,0.3-2.2-1.4-2.1c-1.7,0.1-5-3.5-5-3.5l-5.4,7.3l0.2,1.8c0,0-0.2,1.6,0.6,2.2c0,0,0.8,1.3,0.3,1.7
		c0,0,0.1,1.3,0.5,2.2c0,0,2.7,6.3,2.7,7.4c0,0,2.2,9.5,4.8,10c0,0,0.5,2.3,1.3,2.5c0,0,0.1,1.6,0.8,2l2,1.4c0,0,5.4,9.3,15.3,5.9
		l5-1.6l10.1-3.4l5.4-2.7c0,0,2.3-0.2,2.8-1c0,0,4-0.1,4.9-1.4c0,0,1-0.6,1.6-0.5l1.8-1.2L277.3,213.7z"/>
	<path class="st0" d="M308.6,213.6c0,0,2.1,0.5,2.7,0.1c0,0,2.4-1,0.4-3.9"/>
	<path class="st0" d="M312.6,206.9c0,0,3.5,5.1-1.3,6.8"/>
	<path class="st0" d="M312.6,203c0,0,4.6,4,1,8.5"/>
	<path class="st0" d="M308.4,213.2c0,0,7.5-0.8,3.6-5.9"/>
	<path class="st0" d="M311.3,192.7c0,0,1.7,0.4,0.5,1.6"/>
	<path class="st0" d="M312.1,197.1c0,0,3,0.9,1.3,3.3"/>
	<path class="st0" d="M314,210.7c0,0,1.2-5.1-0.9-6.2"/>
	<path class="st0" d="M288.8,202.1c0,0-1.5,0.5-0.3,2.2c0,0,1,0.8,1.2,1.4c0,0,0.6,1.4,1.5,2"/>
	<path class="st2" d="M298.6,191.5l-0.2-0.5l0.4,0.4v-1.6l0.2,1l0.2-1.4l0.2,1.2l0.1-1.6l0.3,0.9l-0.2-1.4l0.2,0.5l-0.4-1.5
		c0,0,0.6,0.5,0.7,0.9l-0.9-1.8l0.9,0.7l-1.8-1.9l1.5,0.7l-1.8-1.1l1.9,0.3l-0.1,1.4l-1.7-2.2l-0.5-0.2l0.2-0.3l-0.5-0.1l0.3-0.2
		l-0.6-0.1l-0.3-0.3l1.6-0.6l-0.1,0.3l0.8-0.2v0.5l0.5,0.1l-0.7,0.3l0.6,0.1l-0.5,0.2l0.7,0.3l-0.5,0.2l0.7,0.1l-0.7,0.1l0.7,0.4
		v0.1"/>
	<path class="st2" d="M288.6,182.5c0,0,0,0,0.1,0c0.3,0,1.1-0.1,1-0.9c0,0-0.1-1.3-1-1.2c0,0,0.5,0.4,0.5,0.7
		C289.3,181.2,288.6,181.8,288.6,182.5z"/>
	<path class="st2" d="M295.6,182.1l-0.2-0.4l-0.7-0.4l2.1-0.4l-0.3,0.6C296.6,181.5,295.6,181.6,295.6,182.1z"/>
	<polygon class="st0" points="295.1,181.4 293.4,181.5 294.4,182.4 296.1,182 	"/>
	<path class="st3" d="M290.3,186.7"/>
	<path class="st3" d="M224.9,172.7c0,0-1.5-1.3-1.9,0"/>
	<path class="st3" d="M222.7,174.7c0,0,1.5-0.3,1.7,0.7"/>
	<path class="st3" d="M212.6,173.9c0,0-1.1,0-0.6,1"/>
	<path class="st3" d="M215.9,173.1c0,0-0.1,0.3,0,0.8"/>
	<path class="st3" d="M209.2,174.3l-0.5,0.9c0,0,0.7,1.5,0.6,2.1"/>
	<path class="st3" d="M211,173.3c0,0,0.3,0.8,0.2,1.9"/>
	<path class="st3" d="M208.4,178.4c0,0,0.8-0.6,0.8-1.2"/>
	<line class="st3" x1="211.6" y1="185.5" x2="210.9" y2="181"/>
	<path class="st3" d="M220.4,175.6"/>
	<path class="st3" d="M224.9,172.3c0,0-1.2-0.3-1.1-0.8"/>
	<path class="st3" d="M208.2,172.6c0,0,0.6-0.9,1.3-0.7c0,0,2-2,2.8-1l0.1-0.5c0,0,0.5-0.7,1.2-0.9c0,0,1.1,0,1.3,0.3l2.2-0.3
		c0,0,1.2-0.7,1.9-0.2l0.7,0.6c0,0,1.8,0,2.3,0.6c0,0,0.1,0.1,0.2,0.1c0.2,0,0.4-0.1,0.7-0.3c0,0,1.9-0.7,2.2,0.7l-2.6,1.3
		l-13.9,1.4L208.2,172.6z"/>
	<path class="st3" d="M221.7,171.5c0,0,0.1-0.8,0.7-1"/>
	<path class="st3" d="M218.8,170.4c0,0-0.8-0.2-1.7,0.7"/>
	<path class="st3" d="M215,169.7c0,0,1,0.6,1.1,1.4"/>
	<path class="st3" d="M212.7,171.2c0,0,1.4-1.6,2.2,0"/>
	<path class="st3" d="M211.7,171.8c0,0-0.9-0.6-1.4,0"/>
	<path class="st3" d="M213,171.7c0,0,0.7-0.5,1.1-0.1"/>
	<g>
		<path class="st3" d="M292.6,203.2c0,0-0.3,0.2-1.1-0.2c0,0-1.1-0.7-0.8,0.2c0,0,1.1,1.3,0.6,2.1"/>
		<path class="st3" d="M292.9,204.4l1.1,0.1c0,0-0.5,0.7-0.5,1.3c0,0-1.8,0.2-2.1,0.4"/>
		<path class="st3" d="M294.7,204.7c0,0,1.3,0.7,1.1,2c0,0-0.9,1.2-1.3,1.3"/>
		<path class="st3" d="M294.1,207c0,0-1,1-3-0.3"/>
		<path class="st3" d="M291.1,182.2c0,0,0.4,1.2-1,1.5c0,0-1.6,0.5-1.8-0.5l0.4-0.9"/>
		<path class="st3" d="M283.8,180.9c0,0,1.4,1.6,0.8,4c0,0,1.9-1.2,0.5-4.7"/>
		<line class="st3" x1="282.3" y1="180.3" x2="284.5" y2="184.9"/>
		<path class="st3" d="M293.6,185.3c0,0-0.6,0.7-0.5,1.5"/>
		<path class="st3" d="M294.5,186c0,0,0.9,1,1,1.8l0.6,1.6l0.2-2.2c0,0,0.1-0.9-0.4-1L294.5,186z"/>
		<path class="st3" d="M296.8,189.6c0,0,0.9-2.6-0.2-3.2c0,0-0.6-0.4-0.7-0.1"/>
		<path class="st3" d="M295.2,186.9c0,0,0.5-0.4,1,0"/>
		<path class="st3" d="M296.3,187.6c0,0-0.3,0.4-0.8,0.1"/>
		<line class="st3" x1="295.5" y1="185.2" x2="297.2" y2="184.7"/>
		<line class="st3" x1="275.3" y1="184" x2="276.4" y2="186"/>
		<path class="st3" d="M219.8,170.4c0,0,0.7,1.1-0.1,1.6"/>
		<path class="st3" d="M217.2,169.6c0,0-0.7,0.8-0.6,1.6"/>
		<line class="st3" x1="197.5" y1="173.2" x2="193.2" y2="180.7"/>
		<path class="st3" d="M230.7,194.1c0,0-3.6-2.5-4.6-1.6c0,0-1.6,0.8-1.8,3.2"/>
		<path class="st3" d="M226.3,189.3c0,0-4.3-0.8-4.7,0.9"/>
		<path class="st3" d="M237.2,202.3c0,0-1.7,0.7-1.6,3"/>
		<path class="st3" d="M235.4,200.7c0,0-2,1.1-2.3,3.8"/>
		<path class="st3" d="M219.7,199c0,0,2.2,3.9,1.7,6.5"/>
		<path class="st3" d="M223.6,216.4c0,0,1.2,0.1,1.1-1"/>
		<path class="st3" d="M242.4,217.7c0,0,4.6-9.9-1.1-11.9c0,0,6.2,2.9,3.2,12.9c0,0-0.4,4.2-2.1,4.6"/>
		<path class="st3" d="M244.9,206.3c0,0-0.2-2.8-2.5-1.9"/>
		<path class="st3" d="M272.7,217.7c0,0,4.8-4.8,3.5-9.6"/>
		<path class="st3" d="M257.5,190.5c0,0-8.1,4.3-7.8,10.8"/>
		<path class="st3" d="M184.4,214.5c0,0,10.6-2.5,14.2-7.1l4.4-3.3"/>
		<path class="st3" d="M203.3,211.1c0,0,5.5-0.7,6.7-2.1"/>
		<line class="st3" x1="217" y1="201.2" x2="214.7" y2="204.8"/>
		<path class="st3" d="M212.9,189.9c0,0-3.9,9.7-5.6,10.4"/>
	</g>
	<path class="st3" d="M83.5,199c0,0-3.3,0.6-4.8,1.7l-3.3,1.6l-7.4-3l-1-6.2l5.2-5.3c0,0,4.5,2,13.7,1.8L83.5,199z"/>
	<path class="st3" d="M79.7,200.8c0,0-2-0.3-4.6,0.3c0,0-4.9-1.4-5.4-2.9c0,0-0.3-2.8-1.3-3.2c0,0,1.2-2.9-2-3.3l-5-2.5l-5.4-2.5
		c0,0-0.3-1.3-3,0.3c0,0-1.2,2-2.1,1.2l0.1-1.6c0,0-2.1-4-1.1-6c0,0,1.2-1.7,2.1-1.7c0,0,5.1,2,5.3,2.8c0,0,0.7,0.2,1.3,0.1
		c0.6-0.1-6.6-4.7-10-3.2l-2.6,2.4l-0.1,2.9l1.1,5.5l5.7,6l8.1,4.5l7.1,5.7c0,0,5.9,1.6,9.6-0.8C77.4,205,80.3,201.7,79.7,200.8z"/>
	<path class="st3" d="M76.2,205.8c0,0-2.8,3.5-6,2.1c0,0-4.4-1.6-6.7-4.1c0,0-5.9-5-7.8-5.5c0,0-2.9-1.6-4.6-3.1
		c0,0-5.3-4.1-6.4-9.6c0,0-1.2-3.2,1.3-5.9c0,0,3.3-2.9,5.9-0.6c0,0-1.6-1.6-4.5,0.6c0,0-0.9,0.8-1,2.4c0,0,0.7,3.9,1.6,5.1l2.9,4.6
		c0,0,2,2.3,1.7,3.6c0,0,2.5,0.3,3.7,1.1c0,0,9.1,4.1,9.8,6.7c0,0,1.4-0.1,2.1,0.9c0,0,4.3,2.4,4.7,1.8
		C72.8,205.8,75.5,206.4,76.2,205.8z"/>
	<path class="st3" d="M71.1,200.6c0,0-2.4,1.4-6-1c0,0-8.6-3.8-10.4-3.8"/>
	<path class="st3" d="M63.9,184.5l3.2,2.1c0,0,1.3,1,0.4,2.6l-4.1,0.1c0,0-2.2,0.3-3.6,2.4c0,0-1.8,2.6-1.6,4.2c0,0-0.1,2.3,2.1,2.3
		c0,0,2.2,0.1,3.7-3.7c0,0,1.7-3.7,2.5-4l-1.8,3.7l-1.3,2.1l1.6-2c0,0,2.9-2.9,3.2-4.5c0,0,1.4-1.9,1.9-2.2c0,0,1.7-2.9,0.9-4.5
		c0,0-0.8-2.2-2.1-0.8l-1,3.9l-3.7-2.2L63.9,184.5z"/>
	<path class="st3" d="M66.2,190.1c0,0-3.5-0.1-5.1,1.9c0,0-2.4,2.6-1,4.1c0,0,1,2.5,3.3-2.1C63.5,194,65.1,190.6,66.2,190.1z"/>
	<path class="st3" d="M68.6,188.6c0,0,0-1.3-0.2-1.7c0,0,1.6-2.6,0.7-3.6c0,0,0.2-1.6,1-0.3C70.1,182.9,71,186.4,68.6,188.6z"/>
	<path class="st3" d="M68.7,196.6c0,0,1.4,0.3,1.8-1.7c0,0,1.6-5.1,2.1-6c0,0,2.1-0.7,1-1.4c-1.1-0.6-0.3-0.1-0.3-0.1l-1.6,0.2
		l-1.3-0.7l-2-0.3c0,0-5.6-2.6-6.9-2.3l-1.2-1.2c0,0-0.3-0.9-1.3-0.6l-0.5-0.5"/>
	<path class="st3" d="M59.2,182.7c0,0-3.7,3.5-4.1,4.7l0.3,0.3c0,0,4-3.4,4.9-4.6"/>
	<path class="st1" d="M221.8,182.3c0,0,2.8-1.2,2.5-3.5c0,0,1.2-1.6,0.6-2.7c0,0,1-2.5,0.4-3.2c0,0,0.5-1.8-0.6-2.1
		c0,0-1.6-0.3-2.3,0.8c0,0-0.8,1.5-0.5,2.8l-0.6,0.5c0,0-1-1.4-2.8-1.5l-0.7-1.2c0,0-0.5-2.2-2.5-1.5c0,0-1.5,0.7-0.6,2.2l-0.6,0.3
		c0,0-0.4-2-2.1-1.7c0,0-1.2,0.7-1,1.7c0,0-1.6-0.4-2.1,1.1c0,0-1.1,0-1.5,0.9l-0.5,1.5c0,0-0.5,0.7,0.3,1.8c0,0,0.8,6,4.2,7
		L221.8,182.3z"/>
	<path class="st1" d="M224.9,187.2c0,0-6.7-1.3-10.1,6c0,0-2.9-4.9-3.6-7.5c0,0,5.5-10.4,11.3-3.9l-0.2,0.9L224.9,187.2z"/>
</g>
</svg>
