<?xml version="1.0" encoding="utf-8"?>
<!-- Generator: Adobe Illustrator 22.0.1, SVG Export Plug-In . SVG Version: 6.00 Build 0)  -->
<svg version="1.1" id="Layer_1" xmlns="http://www.w3.org/2000/svg" xmlns:xlink="http://www.w3.org/1999/xlink" x="0px" y="0px"
	 viewBox="0 0 360 360" style="enable-background:new 0 0 360 360;" xml:space="preserve">
<style type="text/css">
	.st0{fill:none;stroke:#354753;stroke-width:0.5;stroke-miterlimit:10;}
	.st1{fill:none;stroke:#354753;stroke-miterlimit:10;}
	.st2{fill:#FFFFFF;stroke:#354753;stroke-miterlimit:10;}
	.st3{fill:#354753;}
</style>
<g>
	<path class="st0" d="M208.9,171.1c0,0,0.6-0.9,1.3-0.7c0,0,2-2,2.8-1l0.1-0.5c0,0,0.5-0.7,1.2-0.9c0,0,1.1,0,1.3,0.3l2.2-0.3
		c0,0,1.2-0.7,1.9-0.2l0.7,0.6c0,0,1.8,0,2.3,0.6c0,0,0.1,0.1,0.2,0.1c0.2,0,0.4-0.1,0.7-0.3c0,0,1.9-0.7,2.2,0.7l-2.6,1.3
		l-13.9,1.4L208.9,171.1z"/>
	<path class="st0" d="M222.3,170.1c0,0,0.1-0.8,0.7-1"/>
	<path class="st0" d="M219.5,168.9c0,0-0.8-0.2-1.7,0.7"/>
	<path class="st0" d="M213.3,169.8c0,0,1.4-1.6,2.2,0"/>
	<path class="st0" d="M212.3,170.4c0,0-0.9-0.6-1.4,0"/>
	<path class="st0" d="M213.6,170.2c0,0,0.7-0.5,1.1-0.1"/>
	<path class="st0" d="M220.5,169c0,0,0.7,1.1-0.1,1.6"/>
	<path class="st0" d="M217.9,168.1c0,0-0.7,0.8-0.6,1.6"/>
</g>
<path class="st1" d="M274.1,186.3l1.7-2.7c0,0,0-3.1,2.8-3.3c0,0,2.1-0.3,3.3,0.3l0.9-0.6c0,0,0.6-0.6,1.8,0.3c0,0,0.6-0.8,1.5-0.6
	c0.9,0.2,2,0.4,2,0.4s1-0.8,1-1.2c0,0,0.1-0.8,1.6-0.3l1.5,1.2l1.8,1.3l1.2,0.9c0,0,1.3-0.1,1.4-0.9h0.7c0,0,7.1,2.5,8.6,4.5
	l1.4,0.9l2.4,5.6l-0.6,4.9l-7.7,7.2l-5.1,4.8l-17-2.2L274.1,186.3z"/>
<path class="st2" d="M276.8,190.2c0,0-0.7-5.3-4.4-4.4c0,0-6.8-1.3-7.5-0.3l-2.2-2.6c0,0-1-4.9-4.6-2.9l8.6,9.2L276.8,190.2z"/>
<path class="st3" d="M87.9,188.5c0,0-3.2-1.2-3.7,1.7l-0.8,3.5c0,0-0.5,4.7,0.2,6.3c0,0,24.6,1.5,27.6,1.2c0,0,5.3-0.4,6.2-1.6
	c0,0,1.8,0.3,2.1-0.6c0,0,4.4-0.3,4.9-1.4c0,0,2.9-0.4,3.6,0.2c0,0,2.1,0.2,2.2-0.4l1.5,0.4c0,0,2.8,1.3,4,0.8l19.3,5.3
	c0,0,0.3,0.8,1.5,0.8c0,0,1.9,0.8,2.7,0.3c0,0,1.2,1.4,2.4,0.8c0,0,2,2.2,6.9,3.1c0,0,1.2,1.1,2.5,0.8c0,0,1.6,1.1,2.8,0.8
	c0,0,1.5,0.4,2.6,0.2c0,0,2.3,1.1,2.4,0.5l2.5,0.1l13.6-7.2l-4.2-31.4c0,0-0.8-1.8-1.8-2c-1.1-0.2-0.3-5-23.1-25.8c0,0-6-5.9-10-4.6
	c0,0-7.5,3.1-10,8.2c0,0-4.7,10.3-19.8,19.7c0,0,4.4,7.1,4.9,7.5c0,0-2.4,0-3.2,0.9c0,0-4.4-0.4-7.1,1.7c0,0-2.1-0.8-5.7,3.4
	c0,0-2.1,0.2-2.9,2.1c-0.8,1.9-8.5,2.1-8.5,2.1s-1.2-0.5-1.4,0.5c0,0-3.1,0.1-3.6,0.9c0,0-2.7-1.2-3.3,0.5l-2.5-0.4
	C92.6,187.4,89.9,187.6,87.9,188.5z"/>
<path class="st2" d="M159.5,174.5l-17,1.5c0,0,11.2-7.3,12.4-10.7l0.9-0.7L159.5,174.5z"/>
<polygon class="st1" points="129.4,171.8 123,177.8 135,177.5 "/>
<path class="st3" d="M283,209.8c0,0,4.9,3.3,10.6,3c0,0-0.6,0.9-1.5,1.2c0,0,2.9,2,6.6,0.9l-0.9,1.3c0,0,3.9-0.6,5.7-2.1l-1,1.7
	c0,0,1.9-1.7,3.5-1.1c0,0,2.6,0.2,2.8-0.7c0,0,5-5.6,4.8-6.6c0,0,1-6.7,0.5-8.1c0,0-0.7-3.7-1.7-5.2l-0.2-1l0.1-0.6
	c0,0-1.6-3.5-2.5-3.5c0,0-0.3-1.2-1.1-0.5c0,0,0.6-0.8-0.2-0.7c0,0-0.1-2.2-2.4-2c0,0,4.5,4.5,1.7,11.8l-0.3-0.9l-0.6,1.2l0.1-1.5
	l-0.9-0.1l-0.3-1.3l-0.4,0.7l0.1-1.3l-0.9,0.9l-0.1-1.1l-0.6,1.2l-0.2-1.4l-0.6,2.1l-0.1-1.4c0,0-2.4,3.7-4.9,3.7l0.7,0.9l-1.7-0.1
	l1.3,0.7l-2.1-0.1l1.5,0.4l-4.5,0.2c0,0,3.1,0.3,3.6,1.3c0,0,1,2.4,0.1,3c0,0,1.7,3-1.4,3.7c-0.3,0.1-1.7,1-3.7-1
	c0,0-1.8,0.9-4.4-0.4c0,0-1.6-1-3.2-0.7l-1.6,0.1L283,209.8z"/>
<path class="st1" d="M130,195.4c0,0,1,4.3-3.4,4.2l-8.2-0.5l0.8-5.1L130,195.4z"/>
<path class="st2" d="M224,170l-6.5,0.9l-7.3,0.5c0,0-1.1-0.6-1.5-0.3c0,0-1.6-1.1-3.8-1.1c0,0-2.8-0.4-4.2,0.8l-2.6,2
	c0,0-2.5,0.3-3.1-0.2l-3.5-0.3l-3.4-1.1c0,0-1.7-0.7-3.7-0.1l-0.2,1.1c0,0-0.7,4.6,0.3,7.2c0,0,1.3,4.8,2.3,7.4c0,0,1.4,7.9,1,9.8
	c0,0-0.1,7.2-2.8,10.1c0,0-1.5,6.2-2.6,7.4c0,0,1.9,0.1,2-0.3l2,0.2c0,0,6.7,3.8,17.3-3.5l20.3,1.2l54.2-1.6c0,0,4,1.4,4.7,0.2
	c0,0,2.1-4.9,0.3-7.4l-3.8-9.2c0,0-1.7-6.4-8.9-7.2l-9-5.4c0,0-6.3-6.4-20-8.7c0,0-2.9-1.6-4-0.5l-2.6-1h-1.6c0,0-3.7-1.1-5.4-0.9
	C228.2,170,225.2,169.7,224,170z"/>
<path class="st2" d="M278,213.3c0,0,4.3-6.6,4.3-7c0,0,0.9-3-0.2-3.5c0,0-1.2-8.1-7.8-10c0,0-10.9-2.5-12.6-0.9l-6.7,4.3
	c0,0-2.4,2.2-3.4,2.8l-3.2,1.4c0,0-5.1,2.2-5.2,3.6l-1,1.4c0,0-3.3-4.5-4.1-4.5c0,0,0.1-1.7-1.8-1.6c0,0-2.2-4.9-4.1-5.1
	c0,0-1.7-6.2-5-6.4c0,0,0.3-2.2-1.4-2.1c-1.7,0.1-5-3.5-5-3.5l-5.4,7.3l0.2,1.8c0,0-0.2,1.6,0.6,2.2c0,0,0.8,1.3,0.3,1.7
	c0,0,0.1,1.3,0.5,2.2c0,0,2.7,6.3,2.7,7.4c0,0,2.2,9.5,4.8,10c0,0,0.5,2.3,1.3,2.5c0,0,0.1,1.6,0.8,2l2,1.4c0,0,5.4,10.3,15.3,6.9
	l5-1.6l10.1-3.4l5.4-2.7c0,0,2.3-0.2,2.8-1c0,0,4-0.1,4.9-1.4c0,0,1-0.6,1.6-0.5l1.8-1.2L278,213.3z"/>
<path class="st1" d="M309.3,213.2c0,0,2.1,0.5,2.7,0.1c0,0,2.4-1,0.4-3.9"/>
<path class="st1" d="M313.3,206.4c0,0,3.5,5.1-1.3,6.8"/>
<path class="st1" d="M313.2,202.5c0,0,4.6,4,1,8.5"/>
<path class="st1" d="M309.1,212.7c0,0,7.5-0.8,3.6-5.9"/>
<path class="st1" d="M312,192.3c0,0,1.7,0.4,0.5,1.6"/>
<path class="st1" d="M312.7,196.6c0,0,3,0.9,1.3,3.3"/>
<path class="st1" d="M314.6,210.2c0,0,1.2-5.1-0.9-6.2"/>
<path class="st1" d="M289.4,201.7c0,0-1.5,0.5-0.3,2.2c0,0,1,0.8,1.2,1.4c0,0,0.6,1.4,1.5,2"/>
<path class="st3" d="M299.3,191l-0.2-0.5l0.4,0.4v-1.6l0.2,1l0.2-1.4l0.2,1.2l0.1-1.6l0.3,0.9l-0.2-1.4l0.2,0.5l-0.4-1.5
	c0,0,0.6,0.5,0.7,0.9l-0.9-1.8l0.9,0.7l-1.8-1.9l1.5,0.7l-1.8-1.1l1.9,0.3l-0.1,1.4l-1.7-2.2l-0.5-0.2l0.2-0.3l-0.5-0.1l0.3-0.2
	l-0.6-0.1l-0.3-0.3l1.6-0.6l-0.1,0.3l0.8-0.2v0.5l0.5,0.1l-0.7,0.3l0.6,0.1l-0.5,0.2l0.7,0.3l-0.5,0.2l0.7,0.1l-0.7,0.1l0.7,0.4v0.1
	"/>
<path class="st3" d="M289.3,182.1c0,0,0,0,0.1,0c0.3,0,1.1-0.1,1-0.9c0,0-0.1-1.3-1-1.2c0,0,0.5,0.4,0.5,0.7
	C290,180.8,289.2,181.3,289.3,182.1z"/>
<path class="st3" d="M296.3,181.6l-0.2-0.4l-0.7-0.4l2.1-0.4l-0.3,0.6C297.2,181.1,296.3,181.1,296.3,181.6z"/>
<polygon class="st1" points="295.7,181 294.1,181 295.1,182 296.7,181.6 "/>
<path class="st0" d="M291,186.3"/>
<path class="st0" d="M225.5,172.3c0,0-1.5-1.3-1.9,0"/>
<path class="st0" d="M223.3,174.3c0,0,1.5-0.3,1.7,0.7"/>
<path class="st0" d="M213.2,173.4c0,0-1.1,0-0.6,1"/>
<path class="st0" d="M216.6,172.7c0,0-0.1,0.3,0,0.8"/>
<path class="st0" d="M209.8,173.9l-0.5,0.9c0,0,0.7,1.5,0.6,2.1"/>
<path class="st0" d="M211.6,172.9c0,0,0.3,0.8,0.2,1.9"/>
<path class="st0" d="M209.1,178c0,0,0.8-0.6,0.8-1.2"/>
<line class="st0" x1="212.3" y1="185.1" x2="211.5" y2="180.6"/>
<path class="st0" d="M221,175.1"/>
<path class="st0" d="M225.6,171.8c0,0-1.2-0.3-1.1-0.8"/>
<path class="st0" d="M215.6,169.3c0,0,1,0.6,1.1,1.4"/>
<path class="st0" d="M293.2,202.8c0,0-0.3,0.2-1.1-0.2c0,0-1.1-0.7-0.8,0.2c0,0,1.1,1.3,0.6,2.1"/>
<path class="st0" d="M293.6,203.9l1.1,0.1c0,0-0.5,0.7-0.5,1.3c0,0-1.8,0.2-2.1,0.4"/>
<path class="st0" d="M295.4,204.2c0,0,1.3,0.7,1.1,2c0,0-0.9,1.2-1.3,1.3"/>
<path class="st0" d="M294.8,206.5c0,0-1,1-3-0.3"/>
<path class="st0" d="M291.8,181.8c0,0,0.4,1.2-1,1.5c0,0-1.6,0.5-1.8-0.5l0.4-0.9"/>
<path class="st0" d="M284.5,180.4c0,0,1.4,1.6,0.8,4c0,0,1.9-1.2,0.5-4.7"/>
<line class="st0" x1="283" y1="179.9" x2="285.2" y2="184.4"/>
<path class="st0" d="M294.3,184.8c0,0-0.6,0.7-0.5,1.5"/>
<path class="st0" d="M295.2,185.6c0,0,0.9,1,1,1.8l0.6,1.6l0.2-2.2c0,0,0.1-0.9-0.4-1L295.2,185.6z"/>
<path class="st0" d="M297.4,189.1c0,0,0.9-2.6-0.2-3.2c0,0-0.6-0.4-0.7-0.1"/>
<path class="st0" d="M295.9,186.5c0,0,0.5-0.4,1,0"/>
<path class="st0" d="M297,187.2c0,0-0.3,0.4-0.8,0.1"/>
<line class="st0" x1="296.1" y1="184.8" x2="297.9" y2="184.3"/>
<line class="st0" x1="276" y1="183.6" x2="277" y2="185.5"/>
<line class="st0" x1="198.2" y1="172.8" x2="193.9" y2="180.2"/>
<path class="st0" d="M231.4,193.6c0,0-3.6-2.5-4.6-1.6c0,0-1.6,0.8-1.8,3.2"/>
<path class="st0" d="M227,188.8c0,0-4.3-0.8-4.7,0.9"/>
<path class="st0" d="M237.9,201.9c0,0-1.7,0.7-1.6,3"/>
<path class="st0" d="M236.1,200.3c0,0-2,1.1-2.3,3.8"/>
<path class="st0" d="M220.3,198.5c0,0,2.2,3.9,1.7,6.5"/>
<path class="st0" d="M224.2,215.9c0,0,1.2,0.1,1.1-1"/>
<path class="st0" d="M243.1,217.3c0,0,4.6-9.9-1.1-11.9c0,0,6.2,2.9,3.2,12.9c0,0-0.4,4.2-2.1,4.6"/>
<path class="st0" d="M245.6,205.8c0,0-0.2-2.8-2.5-1.9"/>
<path class="st0" d="M273.3,217.2c0,0,4.8-4.8,3.5-9.6"/>
<path class="st0" d="M258.1,190c0,0-8.1,4.3-7.8,10.8"/>
<path class="st0" d="M185.1,214c0,0,10.6-2.5,14.2-7.1l4.4-3.3"/>
<path class="st0" d="M203.9,210.6c0,0,5.5-0.7,6.7-2.1"/>
<line class="st0" x1="217.7" y1="200.8" x2="215.4" y2="204.4"/>
<path class="st0" d="M213.5,189.4c0,0-3.9,9.7-5.6,10.4"/>
<path class="st0" d="M84.2,198.6c0,0-3.3,0.6-4.8,1.7l-3.3,1.6l-7.4-3l-1-6.2l5.2-5.3c0,0,4.5,2,13.7,1.8L84.2,198.6z"/>
<path class="st0" d="M80.3,200.4c0,0-2-0.3-4.6,0.3c0,0-4.9-1.4-5.4-2.9c0,0-0.3-2.8-1.3-3.2c0,0,1.2-2.9-2-3.3l-5-2.5l-5.4-2.5
	c0,0-0.3-1.3-3,0.3c0,0-1.2,2-2.1,1.2l0.1-1.6c0,0-2.1-4-1.1-6c0,0,1.2-1.7,2.1-1.7c0,0,5.1,2,5.3,2.8c0,0,0.7,0.2,1.3,0.1
	c0.6-0.1-6.6-4.7-10-3.2l-2.6,2.4l-0.1,2.9l1.1,5.5l5.7,6l8.1,4.5l7.1,5.7c0,0,5.9,1.6,9.6-0.8C78.1,204.5,81,201.2,80.3,200.4z"/>
<path class="st0" d="M76.8,205.3c0,0-2.8,3.5-6,2.1c0,0-4.4-1.6-6.7-4.1c0,0-5.9-5-7.8-5.5c0,0-2.9-1.6-4.6-3.1c0,0-5.3-4.1-6.4-9.6
	c0,0-1.2-3.2,1.3-5.9c0,0,3.3-2.9,5.9-0.6c0,0-1.6-1.6-4.5,0.6c0,0-0.9,0.8-1,2.4c0,0,0.7,3.9,1.6,5.1l2.9,4.6c0,0,2,2.3,1.7,3.6
	c0,0,2.5,0.3,3.7,1.1c0,0,9.1,4.1,9.8,6.7c0,0,1.4-0.1,2.1,0.9c0,0,4.3,2.4,4.7,1.8C73.4,205.4,76.1,206,76.8,205.3z"/>
<path class="st0" d="M71.7,200.1c0,0-2.4,1.4-6-1c0,0-8.6-3.8-10.4-3.8"/>
<path class="st0" d="M64.6,184l3.2,2.1c0,0,1.3,1,0.4,2.6l-4.1,0.1c0,0-2.2,0.3-3.6,2.4c0,0-1.8,2.6-1.6,4.2c0,0-0.1,2.3,2.1,2.3
	c0,0,2.2,0.1,3.7-3.7c0,0,1.7-3.7,2.5-4l-1.8,3.7l-1.3,2.1l1.6-2c0,0,2.9-2.9,3.2-4.5c0,0,1.4-1.9,1.9-2.2c0,0,1.7-2.9,0.9-4.5
	c0,0-0.8-2.2-2.1-0.8l-1,3.9l-3.7-2.2L64.6,184z"/>
<path class="st0" d="M66.9,189.6c0,0-3.5-0.1-5.1,1.9c0,0-2.4,2.6-1,4.1c0,0,1,2.5,3.3-2.1C64.1,193.5,65.8,190.2,66.9,189.6z"/>
<path class="st0" d="M69.2,188.1c0,0,0-1.3-0.2-1.7c0,0,1.6-2.6,0.7-3.6c0,0,0.2-1.6,1-0.3C70.8,182.4,71.7,186,69.2,188.1z"/>
<path class="st0" d="M69.4,196.1c0,0,1.4,0.3,1.8-1.7c0,0,1.6-5.1,2.1-6c0,0,2.1-0.7,1-1.4S74,187,74,187l-1.6,0.2l-1.3-0.7l-2-0.3
	c0,0-5.6-2.6-6.9-2.3l-1.2-1.2c0,0-0.3-0.9-1.3-0.6l-0.5-0.5"/>
<path class="st0" d="M59.9,182.3c0,0-3.7,3.5-4.1,4.7l0.3,0.3c0,0,4-3.4,4.9-4.6"/>
<path class="st2" d="M222.5,180.9c0,0,2.8-1.2,2.5-3.5c0,0,1.2-1.6,0.6-2.7c0,0,1-2.5,0.4-3.2c0,0,0.5-1.8-0.6-2.1
	c0,0-1.6-0.3-2.3,0.8c0,0-0.8,1.5-0.5,2.8l-0.6,0.5c0,0-1-1.4-2.8-1.5l-0.7-1.2c0,0-0.5-2.2-2.5-1.5c0,0-1.5,0.7-0.6,2.2l-0.6,0.3
	c0,0-0.4-2-2.1-1.7c0,0-1.2,0.7-1,1.7c0,0-1.6-0.4-2.1,1.1c0,0-1.1,0-1.5,0.9l-0.5,1.5c0,0-0.5,0.7,0.3,1.8c0,0,0.8,6,4.2,7
	L222.5,180.9z"/>
<path class="st2" d="M225.6,185.7c0,0-6.7-1.3-10.1,6c0,0-2.9-4.9-3.6-7.5c0,0,5.5-10.4,11.3-3.9l-0.2,0.9L225.6,185.7z"/>
</svg>
