<?xml version="1.0" encoding="utf-8"?>
<!-- Generator: Adobe Illustrator 22.0.1, SVG Export Plug-In . SVG Version: 6.00 Build 0)  -->
<svg version="1.1" id="Layer_1" xmlns="http://www.w3.org/2000/svg" xmlns:xlink="http://www.w3.org/1999/xlink" x="0px" y="0px"
	 viewBox="0 0 360 360" style="enable-background:new 0 0 360 360;" xml:space="preserve">
<style type="text/css">
	.st0{fill:none;stroke:#354753;stroke-width:0.5;stroke-miterlimit:10;}
	.st1{fill:none;stroke:#354753;stroke-miterlimit:10;}
	.st2{fill:#FFFFFF;stroke:#354753;stroke-miterlimit:10;}
	.st3{fill:#354753;}
</style>
<path class="st0" d="M208.7,168.6c0,0,0.6-0.9,1.3-0.7c0,0,2-2,2.8-1l0.1-0.5c0,0,0.5-0.7,1.2-0.9c0,0,1.1,0,1.3,0.3l2.2-0.3
	c0,0,1.2-0.7,1.9-0.2l0.7,0.6c0,0,1.8,0,2.3,0.6c0,0,0.1,0.1,0.2,0.1c0.2,0,0.4-0.1,0.7-0.3c0,0,1.9-0.7,2.2,0.7l-2.6,1.3l-13.9,1.4
	L208.7,168.6z"/>
<path class="st0" d="M222.2,167.5c0,0,0.1-0.8,0.7-1"/>
<path class="st0" d="M219.3,166.4c0,0-0.8-0.2-1.7,0.7"/>
<path class="st0" d="M215.5,165.7c0,0,1,0.6,1.1,1.4"/>
<path class="st0" d="M213.2,167.2c0,0,1.4-1.6,2.2,0"/>
<path class="st0" d="M212.2,167.8c0,0-0.9-0.6-1.4,0"/>
<path class="st0" d="M213.5,167.7c0,0,0.7-0.5,1.1-0.1"/>
<path class="st0" d="M220.3,166.4c0,0,0.7,1.1-0.1,1.6"/>
<path class="st0" d="M217.7,165.6c0,0-0.7,0.8-0.6,1.6"/>
<path class="st1" d="M273.9,186.7l1.7-2.7c0,0,0-3.1,2.8-3.3c0,0,2.1-0.3,3.3,0.3l0.9-0.6c0,0,0.6-0.6,1.8,0.3c0,0,0.6-0.8,1.5-0.6
	c0.9,0.2,2,0.4,2,0.4s1-0.8,1-1.2c0,0,0.1-0.8,1.6-0.3l1.5,1.2l1.8,1.3l1.2,0.9c0,0,1.3-0.1,1.4-0.9h0.7c0,0,7.1,2.5,8.6,4.5
	l1.4,0.9l2.4,5.6l-0.6,4.9l-7.7,7.2l-5.1,4.8l-17-2.2L273.9,186.7z"/>
<path class="st2" d="M276.6,190.7c0,0-0.7-5.3-4.4-4.4c0,0-6.8-1.3-7.5-0.3l-2.2-2.6c0,0-1-4.9-4.6-2.9l8.6,9.2L276.6,190.7z"/>
<path class="st3" d="M87.8,188.9c0,0-3.2-1.2-3.7,1.7l-0.8,3.5c0,0-0.5,4.7,0.2,6.3c0,0,24.6,1.5,27.6,1.2c0,0,5.3-0.4,6.2-1.6
	c0,0,1.8,0.3,2.1-0.6c0,0,4.4-0.3,4.9-1.4c0,0,2.9-0.4,3.6,0.2c0,0,2.1,0.2,2.2-0.4l1.5,0.4c0,0,2.8,1.3,4,0.8l19.3,5.3
	c0,0,0.3,0.8,1.5,0.8c0,0,1.9,0.8,2.7,0.3c0,0,1.2,1.4,2.4,0.8c0,0,2,2.2,6.9,3.1c0,0,1.2,1.1,2.5,0.8c0,0,1.6,1.1,2.8,0.8
	c0,0,1.5,0.4,2.6,0.2c0,0,2.3,1.1,2.4,0.5l2.5,0.1l13.6-7.2l-4.2-31.4c0,0-0.8-1.8-1.8-2c-1.1-0.2-0.3-5-23.1-25.8c0,0-6-5.9-10-4.6
	c0,0-7.5,3.1-10,8.2c0,0-4.7,10.3-19.8,19.7c0,0,4.4,7.1,4.9,7.5c0,0-2.4,0-3.2,0.9c0,0-4.4-0.4-7.1,1.7c0,0-2.1-0.8-5.7,3.4
	c0,0-2.1,0.2-2.9,2.1c-0.8,1.9-8.5,2.1-8.5,2.1s-1.2-0.5-1.4,0.5c0,0-3.1,0.1-3.6,0.9c0,0-2.7-1.2-3.3,0.5l-2.5-0.4
	C92.5,187.9,89.7,188,87.8,188.9z"/>
<path class="st2" d="M159.4,175l-17,1.5c0,0,11.2-7.3,12.4-10.7l0.9-0.7L159.4,175z"/>
<polygon class="st1" points="129.2,172.2 122.8,178.3 134.8,178 "/>
<path class="st3" d="M282.8,210.3c0,0,4.9,3.3,10.6,3c0,0-0.6,0.9-1.5,1.2c0,0,2.9,2,6.6,0.9l-0.9,1.3c0,0,3.9-0.6,5.7-2.1l-1,1.7
	c0,0,1.9-1.7,3.5-1.1c0,0,2.6,0.2,2.8-0.7c0,0,5-5.6,4.8-6.6c0,0,1-6.7,0.5-8.1c0,0-0.7-3.7-1.7-5.2l-0.2-1l0.1-0.6
	c0,0-1.6-3.5-2.5-3.5c0,0-0.3-1.2-1.1-0.5c0,0,0.6-0.8-0.2-0.7c0,0-0.1-2.2-2.4-2c0,0,4.5,4.5,1.7,11.8l-0.3-0.9l-0.6,1.2l0.1-1.5
	l-0.9-0.1l-0.3-1.3l-0.4,0.7l0.1-1.3l-0.9,0.9l-0.1-1.1l-0.6,1.2l-0.2-1.4l-0.6,2.1l-0.1-1.4c0,0-2.4,3.7-4.9,3.7l0.7,0.9l-1.7-0.1
	l1.3,0.7l-2.1-0.1l1.5,0.4l-4.5,0.2c0,0,3.1,0.3,3.6,1.3c0,0,1,2.4,0.1,3c0,0,1.7,3-1.4,3.7c-0.3,0.1-1.7,1-3.7-1
	c0,0-1.8,0.9-4.4-0.4c0,0-1.6-1-3.2-0.7l-1.6,0.1L282.8,210.3z"/>
<path class="st1" d="M129.8,195.8c0,0,1,4.3-3.4,4.2l-8.2-0.5l0.8-5.1L129.8,195.8z"/>
<path class="st2" d="M223.9,167.5l-6.5,0.9l-7.3,0.5c0,0-1.1-0.6-1.5-0.3c0,0-1.6,0.9-3.8,0.9c0,0-2.8-0.4-4.2,0.8l-2.6,2
	c0,0-2.5,1.3-3.1,0.8l-3.5-0.3l-3.4-1.1c0,0-1.7-0.7-3.7-0.1l-0.2,1.1c0,0-0.7,4.6,0.3,7.2c0,0,1.3,4.8,2.3,7.4c0,0,1.4,7.9,1,9.8
	c0,0-0.1,7.2-2.8,10.1c0,0-1.5,6.2-2.6,7.4c0,0,1.9,0.1,2-0.3l2,0.2c0,0,6.7,3.8,17.3-3.5l20.3,1.2l54.2-1.6c0,0,4,1.4,4.7,0.2
	c0,0,2.1-4.9,0.3-7.4l-3.8-9.2c0,0-1.7-7.4-8.9-8.2l-9-7.4c0,0-6.3-6.4-20-8.7c0,0-2.9-1.6-4-0.5l-2.6-1h-1.6c0,0-3.7-1.1-5.4-0.9
	C228,167.5,225,167.1,223.9,167.5z"/>
<path class="st2" d="M277.8,213.7c0,0,4.3-6.6,4.3-7c0,0,0.9-3-0.2-3.5c0,0-1.2-8.1-7.8-10c0,0-10.9-2.5-12.6-0.9l-6.7,4.3
	c0,0-2.4,2.2-3.4,2.8l-3.2,1.4c0,0-5.1,2.2-5.2,3.6l-1,1.4c0,0-3.1-7.2-3.9-7.2c0,0,0.1-1.7-1.8-1.6c0,0-2.2-4.9-4.1-5.1
	c0,0-1.7-6.2-5-6.4c0,0,0.3-2.2-1.4-2.1c-1.7,0.1-5-3.5-5-3.5l-5.4,7.3l0.2,1.8c0,0-0.2,1.6,0.6,2.2c0,0,0.8,1.3,0.3,1.7
	c0,0,0.1,1.3,0.5,2.2c0,0,2.7,6.3,2.7,7.4c0,0,2.2,9.5,4.8,10c0,0,0.5,2.3,1.3,2.5c0,0,0.1,1.6,0.8,2l1.8,5.1c0,0,5.4,9.3,15.3,5.9
	l5-1.6l10.1-3.4l5.4-2.7c0,0,2.3-0.2,2.8-1c0,0,4-0.1,4.9-1.4c0,0,1-0.6,1.6-0.5l1.8-1.2L277.8,213.7z"/>
<path class="st1" d="M309.1,213.6c0,0,2.1,0.5,2.7,0.1c0,0,2.4-1,0.4-3.9"/>
<path class="st1" d="M313.1,206.9c0,0,3.5,5.1-1.3,6.8"/>
<path class="st1" d="M313.1,203c0,0,4.6,4,1,8.5"/>
<path class="st1" d="M308.9,213.2c0,0,7.5-0.8,3.6-5.9"/>
<path class="st1" d="M311.8,192.7c0,0,1.7,0.4,0.5,1.6"/>
<path class="st1" d="M312.6,197.1c0,0,3,0.9,1.3,3.3"/>
<path class="st1" d="M314.5,210.7c0,0,1.2-5.1-0.9-6.2"/>
<path class="st1" d="M289.3,202.1c0,0-1.5,0.5-0.3,2.2c0,0,1,0.8,1.2,1.4c0,0,0.6,1.4,1.5,2"/>
<path class="st3" d="M299.1,191.5L299,191l0.4,0.4v-1.6l0.2,1l0.2-1.4l0.2,1.2l0.1-1.6l0.3,0.9l-0.2-1.4l0.2,0.5l-0.4-1.5
	c0,0,0.6,0.5,0.7,0.9l-0.9-1.8l0.9,0.7l-1.8-1.9l1.5,0.7l-1.8-1.1l1.9,0.3l-0.1,1.4l-1.7-2.2l-0.5-0.2l0.2-0.3l-0.5-0.1l0.3-0.2
	l-0.6-0.1l-0.3-0.3l1.6-0.6l-0.1,0.3l0.8-0.2v0.5l0.5,0.1l-0.7,0.3l0.6,0.1l-0.5,0.2l0.7,0.3l-0.5,0.2l0.7,0.1l-0.7,0.1l0.7,0.4v0.1
	"/>
<path class="st3" d="M289.1,182.5c0,0,0,0,0.1,0c0.3,0,1.1-0.1,1-0.9c0,0-0.1-1.3-1-1.2c0,0,0.5,0.4,0.5,0.7
	C289.8,181.2,289.1,181.8,289.1,182.5z"/>
<path class="st3" d="M296.1,182.1l-0.2-0.4l-0.7-0.4l2.1-0.4l-0.3,0.6C297.1,181.5,296.1,181.6,296.1,182.1z"/>
<polygon class="st1" points="295.6,181.4 293.9,181.5 294.9,182.4 296.6,182 "/>
<path class="st0" d="M290.8,186.7"/>
<path class="st0" d="M225.4,172.7c0,0-1.5-1.3-1.9,0"/>
<path class="st0" d="M223.2,174.7c0,0,1.5-0.3,1.7,0.7"/>
<path class="st0" d="M213.1,173.9c0,0-1.1,0-0.6,1"/>
<path class="st0" d="M216.4,173.1c0,0-0.1,0.3,0,0.8"/>
<path class="st0" d="M209.7,174.3l-0.5,0.9c0,0,0.7,1.5,0.6,2.1"/>
<path class="st0" d="M211.5,173.3c0,0,0.3,0.8,0.2,1.9"/>
<path class="st0" d="M208.9,178.4c0,0,0.8-0.6,0.8-1.2"/>
<line class="st0" x1="212.1" y1="185.5" x2="211.4" y2="181"/>
<path class="st0" d="M220.9,175.6"/>
<path class="st0" d="M225.4,172.3c0,0-1.2-0.3-1.1-0.8"/>
<path class="st0" d="M293.1,203.2c0,0-0.3,0.2-1.1-0.2c0,0-1.1-0.7-0.8,0.2c0,0,1.1,1.3,0.6,2.1"/>
<path class="st0" d="M293.4,204.4l1.1,0.1c0,0-0.5,0.7-0.5,1.3c0,0-1.8,0.2-2.1,0.4"/>
<path class="st0" d="M295.2,204.7c0,0,1.3,0.7,1.1,2c0,0-0.9,1.2-1.3,1.3"/>
<path class="st0" d="M294.6,207c0,0-1,1-3-0.3"/>
<path class="st0" d="M291.6,182.2c0,0,0.4,1.2-1,1.5c0,0-1.6,0.5-1.8-0.5l0.4-0.9"/>
<path class="st0" d="M284.3,180.9c0,0,1.4,1.6,0.8,4c0,0,1.9-1.2,0.5-4.7"/>
<line class="st0" x1="282.8" y1="180.3" x2="285" y2="184.9"/>
<path class="st0" d="M294.1,185.3c0,0-0.6,0.7-0.5,1.5"/>
<path class="st0" d="M295,186c0,0,0.9,1,1,1.8l0.6,1.6l0.2-2.2c0,0,0.1-0.9-0.4-1L295,186z"/>
<path class="st0" d="M297.3,189.6c0,0,0.9-2.6-0.2-3.2c0,0-0.6-0.4-0.7-0.1"/>
<path class="st0" d="M295.7,186.9c0,0,0.5-0.4,1,0"/>
<path class="st0" d="M296.8,187.6c0,0-0.3,0.4-0.8,0.1"/>
<line class="st0" x1="296" y1="185.2" x2="297.7" y2="184.7"/>
<line class="st0" x1="275.8" y1="184" x2="276.9" y2="186"/>
<line class="st0" x1="198" y1="173.2" x2="193.7" y2="180.7"/>
<path class="st0" d="M233.6,193c0,0-3.6-2.5-4.6-1.6c0,0-1.6,0.8-1.8,3.2"/>
<path class="st0" d="M229.2,186.3c0,0-4.3-0.8-4.7,0.9"/>
<path class="st0" d="M238.1,198.8c0,0-1.7,0.7-1.6,3"/>
<path class="st0" d="M236.4,197.1c0,0-2,1.1-2.3,3.8"/>
<path class="st0" d="M220.2,199c0,0,2.2,3.9,1.7,6.5"/>
<path class="st0" d="M243,218.2c0,0,4.6-9.9-1.1-11.9c0,0,6.2,2.9,3.2,12.9c0,0-0.4,4.2-2.1,4.6"/>
<path class="st0" d="M245.4,206.3c0,0-0.2-2.8-2.5-1.9"/>
<path class="st0" d="M273.2,217.7c0,0,4.8-4.8,3.5-9.6"/>
<path class="st0" d="M258,189.5c0,0-8.1,4.3-7.8,10.8"/>
<path class="st0" d="M184.9,214.5c0,0,10.6-2.5,14.2-7.1l4.4-3.3"/>
<path class="st0" d="M203.8,211.1c0,0,5.5-0.7,6.7-2.1"/>
<line class="st0" x1="217.5" y1="201.2" x2="215.2" y2="204.8"/>
<path class="st0" d="M213.4,189.9c0,0-3.9,9.7-5.6,10.4"/>
<path class="st0" d="M84,199c0,0-3.3,0.6-4.8,1.7l-3.3,1.6l-7.4-3l-1-6.2l5.2-5.3c0,0,4.5,2,13.7,1.8L84,199z"/>
<path class="st0" d="M80.2,200.8c0,0-2-0.3-4.6,0.3c0,0-4.9-1.4-5.4-2.9c0,0-0.3-2.8-1.3-3.2c0,0,1.2-2.9-2-3.3l-5-2.5l-5.4-2.5
	c0,0-0.3-1.3-3,0.3c0,0-1.2,2-2.1,1.2l0.1-1.6c0,0-2.1-4-1.1-6c0,0,1.2-1.7,2.1-1.7c0,0,5.1,2,5.3,2.8c0,0,0.7,0.2,1.3,0.1
	c0.6-0.1-6.6-4.7-10-3.2l-2.6,2.4l-0.1,2.9l1.1,5.5l5.7,6l8.1,4.5l7.1,5.7c0,0,5.9,1.6,9.6-0.8C77.9,205,80.8,201.7,80.2,200.8z"/>
<path class="st0" d="M76.7,205.8c0,0-2.8,3.5-6,2.1c0,0-4.4-1.6-6.7-4.1c0,0-5.9-5-7.8-5.5c0,0-2.9-1.6-4.6-3.1c0,0-5.3-4.1-6.4-9.6
	c0,0-1.2-3.2,1.3-5.9c0,0,3.3-2.9,5.9-0.6c0,0-1.6-1.6-4.5,0.6c0,0-0.9,0.8-1,2.4c0,0,0.7,3.9,1.6,5.1l2.9,4.6c0,0,2,2.3,1.7,3.6
	c0,0,2.5,0.3,3.7,1.1c0,0,9.1,4.1,9.8,6.7c0,0,1.4-0.1,2.1,0.9c0,0,4.3,2.4,4.7,1.8C73.3,205.8,76,206.4,76.7,205.8z"/>
<path class="st0" d="M71.6,200.6c0,0-2.4,1.4-6-1c0,0-8.6-3.8-10.4-3.8"/>
<path class="st0" d="M64.4,184.5l3.2,2.1c0,0,1.3,1,0.4,2.6l-4.1,0.1c0,0-2.2,0.3-3.6,2.4c0,0-1.8,2.6-1.6,4.2c0,0-0.1,2.3,2.1,2.3
	c0,0,2.2,0.1,3.7-3.7c0,0,1.7-3.7,2.5-4l-1.8,3.7l-1.3,2.1l1.6-2c0,0,2.9-2.9,3.2-4.5c0,0,1.4-1.9,1.9-2.2c0,0,1.7-2.9,0.9-4.5
	c0,0-0.8-2.2-2.1-0.8l-1,3.9l-3.7-2.2L64.4,184.5z"/>
<path class="st0" d="M66.7,190.1c0,0-3.5-0.1-5.1,1.9c0,0-2.4,2.6-1,4.1c0,0,1,2.5,3.3-2.1C64,194,65.6,190.6,66.7,190.1z"/>
<path class="st0" d="M69.1,188.6c0,0,0-1.3-0.2-1.7c0,0,1.6-2.6,0.7-3.6c0,0,0.2-1.6,1-0.3C70.6,182.9,71.5,186.4,69.1,188.6z"/>
<path class="st0" d="M69.2,196.6c0,0,1.4,0.3,1.8-1.7c0,0,1.6-5.1,2.1-6c0,0,2.1-0.7,1-1.4c-1.1-0.6-0.3-0.1-0.3-0.1l-1.6,0.2
	L71,187l-2-0.3c0,0-5.6-2.6-6.9-2.3l-1.2-1.2c0,0-0.3-0.9-1.3-0.6l-0.5-0.5"/>
<path class="st0" d="M59.7,182.7c0,0-3.7,3.5-4.1,4.7l0.3,0.3c0,0,4-3.4,4.9-4.6"/>
<path class="st2" d="M222.3,178.3c0,0,2.8-1.2,2.5-3.5c0,0,1.2-1.6,0.6-2.7c0,0,1-2.5,0.4-3.2c0,0,0.5-1.8-0.6-2.1
	c0,0-1.6-0.3-2.3,0.8c0,0-0.8,1.5-0.5,2.8l-0.6,0.5c0,0-1-1.4-2.8-1.5l-0.7-1.2c0,0-0.5-2.2-2.5-1.5c0,0-1.5,0.7-0.6,2.2l-0.6,0.3
	c0,0-0.4-2-2.1-1.7c0,0-1.2,0.7-1,1.7c0,0-1.6-0.4-2.1,1.1c0,0-1.1,0-1.5,0.9l-0.5,1.5c0,0-0.5,0.7,0.3,1.8c0,0,0.8,6,4.2,7
	L222.3,178.3z"/>
<path class="st2" d="M225.4,183.2c0,0-6.7-1.3-10.1,6c0,0-2.9-4.9-3.6-7.5c0,0,5.5-10.4,11.3-3.9l-0.2,0.9L225.4,183.2z"/>
</svg>
